SplineFontDB: 3.0
FontName: Topmarks-Book
FullName: Topmarks Book
FamilyName: Topmarks
Weight: Medium
Copyright: Copyright (c) 2012-13 by vernon adams. All rights reserved.
Version: 
ItalicAngle: 0
UnderlinePosition: 0
UnderlineWidth: 0
Ascent: 800
Descent: 200
UFOAscent: 957.031
UFODescent: -320.312
LayerCount: 2
Layer: 0 0 "Back"  1
Layer: 1 0 "Fore"  0
OS2Version: 0
OS2_WeightWidthSlopeOnly: 0
OS2_UseTypoMetrics: 0
CreationTime: 1369859810
ModificationTime: 1369871189
PfmFamily: 0
TTFWeight: 400
TTFWidth: 5
LineGap: 0
VLineGap: 0
OS2TypoAscent: 957
OS2TypoAOffset: 0
OS2TypoDescent: -320
OS2TypoDOffset: 0
OS2TypoLinegap: 0
OS2WinAscent: 957
OS2WinAOffset: 0
OS2WinDescent: 320
OS2WinDOffset: 0
HheadAscent: 957
HheadAOffset: 0
HheadDescent: -320
HheadDOffset: 0
OS2Vendor: 'newt'
Lookup: 4 0 0 "fracDiagonalFractionslookup0"  {"fracDiagonalFractionslookup0 subtable"  } ['frac' ('latn' <'dflt' > 'grek' <'dflt' > 'DFLT' <'dflt' > ) ]
Lookup: 258 0 0 "'kern' Horizontal Kerning in Latin lookup 0"  {"'kern' Horizontal Kerning in Latin lookup 0 subtable"  "kernHorizontalKerninginLatinloo kerning class 1"  } ['kern' ('latn' <'dflt' > ) ]
Lookup: 260 0 0 "markMarkPositioninglookup0"  {"markMarkPositioninglookup0 subtable"  } ['mark' ('latn' <'dflt' > 'grek' <'dflt' > 'DFLT' <'dflt' > ) ]
MarkAttachClasses: 1
DEI: 91125
KernClass2: 15 22 "kernHorizontalKerninginLatinloo kerning class 1" 
 89 A Aacute Abreve Acircumflex Adieresis Agrave Amacron Aogonek Aring Atilde uni0200 uni0202
 1 D
 1 F
 14 G Gcommaaccent
 1 K
 1 L
 1 P
 9 T uni021A
 1 V
 1 W
 18 Y Yacute Ydieresis
 24 c cacute ccaron ccedilla
 60 o oacute ocircumflex odieresis ograve otilde uni020D uni020F
 37 r rcaron rcommaaccent uni0211 uni0213
 89 A Aacute Abreve Acircumflex Adieresis Agrave Amacron Aogonek Aring Atilde uni0200 uni0202
 24 C Cacute Ccaron Ccedilla
 14 G Gcommaaccent
 60 O Oacute Ocircumflex Odieresis Ograve Otilde uni020C uni020E
 9 T uni021A
 1 V
 1 W
 18 Y Yacute Ydieresis

StartChar: A
Encoding: 65 65 0
Width: 682
VWidth: 0
GlyphClass: 2
Flags: W
HStem: 0 21G<20 117.565 561.435 663> 193 66<208 471> 691 20G<289.208 391.848>
AnchorPoint: "top" 343 750 basechar 0
AnchorPoint: "bottom" 359 0 basechar 0
AnchorPoint: "ogonek" 615 0 basechar 0
LayerCount: 2
UndoRedoHistory
Layer: 0
Undoes
EndUndoes
Redoes
EndRedoes
EndUndoRedoHistory
UndoRedoHistory
Layer: 1
Undoes
EndUndoes
Redoes
EndRedoes
EndUndoRedoHistory
Fore
SplineSet
20 0 m 1
 297 711 l 1
 384 711 l 1
 663 0 l 1
 569 0 l 1
 496 193 l 1
 183 193 l 1
 110 0 l 1
 20 0 l 1
208 259 m 1
 471 259 l 1
 388 487 l 1
 341 621 l 1
 291 486 l 1
 208 259 l 1
EndSplineSet
EndChar

StartChar: AE
Encoding: 198 198 1
Width: 967
VWidth: 0
GlyphClass: 2
Flags: W
HStem: 0 72<599 906> 194 73<247 504> 328 72<580 875> 639 72<452 476 553 895>
LayerCount: 2
UndoRedoHistory
Layer: 0
Undoes
EndUndoes
Redoes
EndRedoes
EndUndoRedoHistory
UndoRedoHistory
Layer: 1
Undoes
EndUndoes
Redoes
EndRedoes
EndUndoRedoHistory
Fore
SplineSet
7 0 m 1
 402 711 l 1
 895 711 l 1
 895 639 l 1
 553 639 l 1
 571 400 l 1
 875 400 l 1
 875 328 l 1
 580 328 l 1
 599 72 l 1
 906 72 l 1
 906 0 l 1
 527 0 l 1
 513 194 l 1
 210 194 l 1
 103 0 l 1
 7 0 l 1
247 267 m 1
 504 267 l 1
 476 639 l 1
 452 639 l 1
 247 267 l 1
EndSplineSet
EndChar

StartChar: B
Encoding: 66 66 11
Width: 639
VWidth: 0
GlyphClass: 2
Flags: W
HStem: 0 67<182 427.604> 334 69<182 402.172> 644 67<182 414.617>
VStem: 98 84<67 334 403 644> 462 89<454.205 601.979> 494 89<122.265 275.066>
AnchorPoint: "top" 342 750 basechar 0
AnchorPoint: "bottom" 330 0 basechar 0
LayerCount: 2
UndoRedoHistory
Layer: 0
Undoes
EndUndoes
Redoes
EndRedoes
EndUndoRedoHistory
UndoRedoHistory
Layer: 1
Undoes
EndUndoes
Redoes
EndRedoes
EndUndoRedoHistory
Fore
SplineSet
98 0 m 1xf4
 98 711 l 1
 287 711 l 2
 463 711 551 663 551 540 c 0xf8
 551 449 507 401 430 375 c 1
 526 356 583 305 583 197 c 0
 583 56 473 0 310 0 c 2
 98 0 l 1xf4
182 67 m 1
 307 67 l 2
 432 67 494 104 494 198 c 0xf4
 494 294 430 334 285 334 c 2
 182 334 l 1
 182 67 l 1
182 403 m 1
 271 403 l 2
 403 403 462 439 462 526 c 0xf8
 462 610 424 644 287 644 c 2
 182 644 l 1
 182 403 l 1
EndSplineSet
EndChar

StartChar: C
Encoding: 67 67 12
Width: 668
VWidth: 0
GlyphClass: 2
Flags: W
HStem: -12 74<290.514 511.499> 649 74<296.216 510.34>
VStem: 57 89<224.203 482.821>
AnchorPoint: "top" 386 750 basechar 0
AnchorPoint: "bottom" 403 0 basechar 0
LayerCount: 2
UndoRedoHistory
Layer: 0
Undoes
EndUndoes
Redoes
EndRedoes
EndUndoRedoHistory
UndoRedoHistory
Layer: 1
Undoes
EndUndoes
Redoes
EndRedoes
EndUndoRedoHistory
Fore
SplineSet
393 -12 m 0
 200 -12 57 127 57 353 c 0
 57 567 193 723 392 723 c 0
 487 723 555 695 613 650 c 1
 575 591 l 1
 524 629 463 649 400 649 c 0
 236 649 146 517 146 353 c 0
 146 181 239 62 396 62 c 0
 473 62 538 87 594 132 c 1
 624 63 l 1
 561 14 482 -12 393 -12 c 0
EndSplineSet
EndChar

StartChar: D
Encoding: 68 68 18
Width: 741
VWidth: 0
GlyphClass: 2
Flags: W
HStem: 0 67<182 432.649> 644 67<182 422.587>
VStem: 98 84<67 644> 596 89<226.264 485.489>
AnchorPoint: "top" 342 750 basechar 0
AnchorPoint: "bottom" 330 0 basechar 0
LayerCount: 2
UndoRedoHistory
Layer: 0
Undoes
EndUndoes
Redoes
EndRedoes
EndUndoRedoHistory
UndoRedoHistory
Layer: 1
Undoes
EndUndoes
Redoes
EndRedoes
EndUndoRedoHistory
Fore
SplineSet
182 67 m 1
 304 67 l 2
 485 67 596 163 596 352 c 0
 596 575 469 644 258 644 c 2
 182 644 l 1
 182 67 l 1
98 0 m 1
 98 711 l 1
 249 711 l 2
 506 711 685 622 685 354 c 0
 685 118 524 0 296 0 c 2
 98 0 l 1
EndSplineSet
EndChar

StartChar: Delta
Encoding: 916 916 20
Width: 631
VWidth: 0
GlyphClass: 2
Flags: W
HStem: 0 66<120 513> 691 20G<265.589 366.381>
LayerCount: 2
UndoRedoHistory
Layer: 0
Undoes
EndUndoes
Redoes
EndRedoes
EndUndoRedoHistory
UndoRedoHistory
Layer: 1
Undoes
EndUndoes
Redoes
EndRedoes
EndUndoRedoHistory
Fore
SplineSet
24 0 m 1
 24 39 l 1
 273 711 l 1
 359 711 l 1
 607 39 l 1
 607 0 l 1
 24 0 l 1
120 66 m 1
 513 66 l 1
 330 580 l 1
 314 632 l 1
 299 580 l 1
 120 66 l 1
EndSplineSet
EndChar

StartChar: E
Encoding: 69 69 21
Width: 581
VWidth: 0
GlyphClass: 2
Flags: W
HStem: 0 67<182 536> 328 72<182 493> 644 67<182 511>
VStem: 98 84<67 328 400 644>
AnchorPoint: "top" 320 750 basechar 0
AnchorPoint: "bottom" 403 0 basechar 0
AnchorPoint: "ogonek" 415 0 basechar 0
LayerCount: 2
UndoRedoHistory
Layer: 0
Undoes
EndUndoes
Redoes
EndRedoes
EndUndoRedoHistory
UndoRedoHistory
Layer: 1
Undoes
EndUndoes
Redoes
EndRedoes
EndUndoRedoHistory
Fore
SplineSet
98 0 m 1
 98 711 l 1
 511 711 l 1
 511 644 l 1
 182 644 l 1
 182 400 l 1
 493 400 l 1
 493 328 l 1
 182 328 l 1
 182 67 l 1
 536 67 l 1
 536 0 l 1
 98 0 l 1
EndSplineSet
EndChar

StartChar: Eth
Encoding: 208 208 31
Width: 741
VWidth: 0
GlyphClass: 2
Flags: W
HStem: 0 67<182 432.649> 328 63<21 298> 644 67<182 422.587>
VStem: 98 84<67 644> 596 89<226.264 485.489>
LayerCount: 2
UndoRedoHistory
Layer: 0
Undoes
EndUndoes
Redoes
EndRedoes
EndUndoRedoHistory
UndoRedoHistory
Layer: 1
Undoes
EndUndoes
Redoes
EndRedoes
EndUndoRedoHistory
Fore
SplineSet
21 391 m 1
 298 391 l 1
 298 328 l 1
 21 328 l 1
 21 391 l 1
EndSplineSet
Refer: 18 68 N 1 0 0 1 0 0 2
EndChar

StartChar: Euro
Encoding: 8364 8364 32
Width: 680
VWidth: 0
GlyphClass: 2
Flags: W
HStem: -12 74<302.514 523.499> 252 62<16 108 153 415> 388 62<16 108 153 431> 649 74<308.216 522.34>
VStem: 69 89<224.203 482.821> 108 45<314 388>
LayerCount: 2
UndoRedoHistory
Layer: 0
Undoes
EndUndoes
Redoes
EndRedoes
EndUndoRedoHistory
UndoRedoHistory
Layer: 1
Undoes
EndUndoes
Redoes
EndRedoes
EndUndoRedoHistory
Fore
SplineSet
415 252 m 1xf4
 6 252 l 1
 16 314 l 1
 108 314 l 1
 108 388 l 1
 5 388 l 1
 16 450 l 1
 441 450 l 1
 431 388 l 1
 153 388 l 1
 153 314 l 1
 424 314 l 1
 415 252 l 1xf4
EndSplineSet
Refer: 12 67 N 1 0 0 1 12 0 2
EndChar

StartChar: F
Encoding: 70 70 33
Width: 544
VWidth: 0
GlyphClass: 2
Flags: W
HStem: 0 21G<98 182> 326 72<182 484> 644 67<182 501>
VStem: 98 84<0 326 398 644>
AnchorPoint: "top" 342 750 basechar 0
AnchorPoint: "bottom" 330 0 basechar 0
LayerCount: 2
UndoRedoHistory
Layer: 0
Undoes
EndUndoes
Redoes
EndRedoes
EndUndoRedoHistory
UndoRedoHistory
Layer: 1
Undoes
EndUndoes
Redoes
EndRedoes
EndUndoRedoHistory
Fore
SplineSet
98 0 m 1
 98 711 l 1
 501 711 l 1
 501 644 l 1
 182 644 l 1
 182 398 l 1
 484 398 l 1
 484 326 l 1
 182 326 l 1
 182 0 l 1
 98 0 l 1
EndSplineSet
EndChar

StartChar: G
Encoding: 71 71 34
Width: 725
VWidth: 0
GlyphClass: 2
Flags: W
HStem: -12 74<290.131 554.294> 297 73<362 559> 649 74<300.656 517.57>
VStem: 57 89<215.716 478.986> 559 84<77.4841 297>
AnchorPoint: "top" 386 750 basechar 0
AnchorPoint: "bottom" 403 0 basechar 0
LayerCount: 2
UndoRedoHistory
Layer: 0
Undoes
EndUndoes
Redoes
EndRedoes
EndUndoRedoHistory
UndoRedoHistory
Layer: 1
Undoes
EndUndoes
Redoes
EndRedoes
EndUndoRedoHistory
Fore
SplineSet
57 342 m 0
 57 595 219 723 398 723 c 0
 477 723 558 698 631 650 c 1
 595 590 l 1
 530 630 463 649 402 649 c 0
 258 649 146 542 146 349 c 0
 146 168 236 62 410 62 c 0
 467 62 517 67 559 85 c 1
 559 297 l 1
 362 297 l 1
 362 370 l 1
 643 370 l 1
 643 40 l 1
 572 7 497 -12 404 -12 c 0
 186 -12 57 116 57 342 c 0
EndSplineSet
EndChar

StartChar: H
Encoding: 72 72 39
Width: 739
VWidth: 0
GlyphClass: 2
Flags: W
HStem: 0 21G<98 182 558 642> 329 72<182 558> 691 20G<98 182 558 642>
VStem: 98 84<0 329 401 711> 558 84<0 329 401 711>
AnchorPoint: "top" 387 750 basechar 0
AnchorPoint: "bottom" 385 0 basechar 0
LayerCount: 2
UndoRedoHistory
Layer: 0
Undoes
EndUndoes
Redoes
EndRedoes
EndUndoRedoHistory
UndoRedoHistory
Layer: 1
Undoes
EndUndoes
Redoes
EndRedoes
EndUndoRedoHistory
Fore
SplineSet
98 0 m 1
 98 711 l 1
 182 711 l 1
 182 401 l 1
 558 401 l 1
 558 711 l 1
 642 711 l 1
 642 0 l 1
 558 0 l 1
 558 329 l 1
 182 329 l 1
 182 0 l 1
 98 0 l 1
EndSplineSet
EndChar

StartChar: I
Encoding: 73 73 41
Width: 375
VWidth: 0
GlyphClass: 2
Flags: W
HStem: 0 61<54 146 230 322> 650 61<54 146 230 322>
VStem: 146 84<61 650>
AnchorPoint: "top" 190 750 basechar 0
AnchorPoint: "bottom" 140 0 basechar 0
LayerCount: 2
UndoRedoHistory
Layer: 0
Undoes
EndUndoes
Redoes
EndRedoes
EndUndoRedoHistory
UndoRedoHistory
Layer: 1
Undoes
EndUndoes
Redoes
EndRedoes
EndUndoRedoHistory
Fore
SplineSet
322 0 m 1
 54 0 l 1
 54 61 l 1
 146 61 l 1
 146 650 l 1
 54 650 l 1
 54 711 l 1
 322 711 l 1
 322 650 l 1
 230 650 l 1
 230 61 l 1
 322 61 l 1
 322 0 l 1
EndSplineSet
EndChar

StartChar: J
Encoding: 74 74 52
Width: 515
VWidth: 0
GlyphClass: 2
Flags: W
HStem: -12 74<108.463 258.119> 644 67<103 302 382 515>
VStem: 302 80<112.875 644>
AnchorPoint: "top" 327 750 basechar 0
LayerCount: 2
UndoRedoHistory
Layer: 0
Undoes
EndUndoes
Redoes
EndRedoes
EndUndoRedoHistory
UndoRedoHistory
Layer: 1
Undoes
EndUndoes
Redoes
EndRedoes
EndUndoRedoHistory
Fore
SplineSet
21 63 m 1
 64 121 l 1
 97 81 143 62 185 62 c 0
 264 62 302 102 302 228 c 2
 302 644 l 1
 103 644 l 1
 103 711 l 1
 515 711 l 1
 515 644 l 1
 382 644 l 1
 382 212 l 2
 382 60 312 -12 189 -12 c 0
 129 -12 63 11 21 63 c 1
EndSplineSet
EndChar

StartChar: K
Encoding: 75 75 54
Width: 610
VWidth: 0
GlyphClass: 2
Flags: W
HStem: 0 21G<98 182 482.034 606> 691 20G<98 182 464.304 586>
VStem: 98 84<0 354 389 711>
AnchorPoint: "top" 326 750 basechar 0
AnchorPoint: "bottom" 354 0 basechar 0
LayerCount: 2
UndoRedoHistory
Layer: 0
Undoes
EndUndoes
Redoes
EndRedoes
EndUndoRedoHistory
UndoRedoHistory
Layer: 1
Undoes
EndUndoes
Redoes
EndRedoes
EndUndoRedoHistory
Fore
SplineSet
98 0 m 1
 98 711 l 1
 182 711 l 1
 182 389 l 1
 483 711 l 1
 586 711 l 1
 269 373 l 1
 606 0 l 1
 500 0 l 1
 182 354 l 1
 182 0 l 1
 98 0 l 1
EndSplineSet
EndChar

StartChar: L
Encoding: 76 76 56
Width: 525
VWidth: 0
GlyphClass: 2
Flags: W
HStem: 0 67<182 514> 691 20G<98 182>
VStem: 98 84<67 711>
AnchorPoint: "top" 283 750 basechar 0
AnchorPoint: "bottom" 340 0 basechar 0
LayerCount: 2
UndoRedoHistory
Layer: 0
Undoes
EndUndoes
Redoes
EndRedoes
EndUndoRedoHistory
UndoRedoHistory
Layer: 1
Undoes
EndUndoes
Redoes
EndRedoes
EndUndoRedoHistory
Fore
SplineSet
98 0 m 1
 98 711 l 1
 182 711 l 1
 182 67 l 1
 514 67 l 1
 514 0 l 1
 98 0 l 1
EndSplineSet
EndChar

StartChar: Lslash
Encoding: 321 321 61
Width: 525
VWidth: 0
GlyphClass: 2
Flags: W
HStem: 0 67<182 514> 481 20G<287.513 319> 691 20<98 182>
VStem: 98 84<67 711>
LayerCount: 2
UndoRedoHistory
Layer: 0
Undoes
EndUndoes
Redoes
EndRedoes
EndUndoRedoHistory
UndoRedoHistory
Layer: 1
Undoes
EndUndoes
Redoes
EndRedoes
EndUndoRedoHistory
Fore
SplineSet
319 435 m 1
 12 239 l 1
 12 306 l 1
 319 501 l 1
 319 435 l 1
EndSplineSet
Refer: 56 76 N 1 0 0 1 0 0 2
EndChar

StartChar: M
Encoding: 77 77 62
Width: 950
VWidth: 0
GlyphClass: 2
Flags: W
HStem: 0 21G<98 181 771 853> 691 20G<98 218.607 738.04 853>
VStem: 98 83<0 619> 771 82<0 611>
AnchorPoint: "top" 474 750 basechar 0
AnchorPoint: "bottom" 477 0 basechar 0
LayerCount: 2
UndoRedoHistory
Layer: 0
Undoes
EndUndoes
Redoes
EndRedoes
EndUndoRedoHistory
UndoRedoHistory
Layer: 1
Undoes
EndUndoes
Redoes
EndRedoes
EndUndoRedoHistory
Fore
SplineSet
98 0 m 1
 98 711 l 1
 208 711 l 1
 435 283 l 1
 476 205 l 1
 515 284 l 1
 749 711 l 1
 853 711 l 1
 853 0 l 1
 771 0 l 1
 771 611 l 1
 734 535 l 1
 504 107 l 1
 445 107 l 1
 213 541 l 1
 181 619 l 1
 181 0 l 1
 98 0 l 1
EndSplineSet
EndChar

StartChar: N
Encoding: 78 78 63
Width: 774
VWidth: 0
GlyphClass: 2
Flags: W
HStem: 0 21G<98 182 562.703 677> 691 20G<98 211.199 594 677>
VStem: 98 84<0 604> 594 83<105 711>
AnchorPoint: "top" 395 750 basechar 0
AnchorPoint: "bottom" 393 0 basechar 0
LayerCount: 2
UndoRedoHistory
Layer: 0
Undoes
EndUndoes
Redoes
EndRedoes
EndUndoRedoHistory
UndoRedoHistory
Layer: 1
Undoes
EndUndoes
Redoes
EndRedoes
EndUndoRedoHistory
Fore
SplineSet
98 0 m 1
 98 711 l 1
 198 711 l 1
 557 167 l 1
 594 105 l 1
 594 711 l 1
 677 711 l 1
 677 0 l 1
 576 0 l 1
 215 543 l 1
 182 604 l 1
 182 0 l 1
 98 0 l 1
EndSplineSet
EndChar

StartChar: O
Encoding: 79 79 68
Width: 793
VWidth: 0
GlyphClass: 2
Flags: W
HStem: -12 74<299.009 494.904> 649 74<299.009 494.904>
VStem: 57 89<226.522 484.675> 647 90<226.522 484.675>
AnchorPoint: "top" 386 750 basechar 0
AnchorPoint: "bottom" 403 0 basechar 0
LayerCount: 2
UndoRedoHistory
Layer: 0
Undoes
EndUndoes
Redoes
EndRedoes
EndUndoRedoHistory
UndoRedoHistory
Layer: 1
Undoes
EndUndoes
Redoes
EndRedoes
EndUndoRedoHistory
Fore
SplineSet
397 62 m 0
 527 62 647 161 647 356 c 0
 647 551 527 649 397 649 c 0
 267 649 146 551 146 356 c 0
 146 161 267 62 397 62 c 0
397 -12 m 0
 175 -12 57 164 57 355 c 0
 57 547 175 723 397 723 c 0
 619 723 737 547 737 355 c 0
 737 164 619 -12 397 -12 c 0
EndSplineSet
EndChar

StartChar: OE
Encoding: 338 338 69
Width: 975
VWidth: 0
GlyphClass: 2
Flags: W
HStem: -12 74<299.009 490.615> 0 67<576 930> 328 72<576 887> 644 67<576 905> 649 74<299.009 490.615>
VStem: 57 89<226.522 484.675> 492 84<67 328 400 644>
LayerCount: 2
UndoRedoHistory
Layer: 0
Undoes
EndUndoes
Redoes
EndRedoes
EndUndoRedoHistory
UndoRedoHistory
Layer: 1
Undoes
EndUndoes
Redoes
EndRedoes
EndUndoRedoHistory
Fore
SplineSet
492 631 m 1x36
 462 643 430 649 397 649 c 0
 267 649 146 551 146 356 c 0
 146 161 267 62 397 62 c 0xae
 430 62 462 68 492 81 c 1
 492 0 l 1x66
 463 -8 431 -12 397 -12 c 0
 175 -12 57 164 57 355 c 0
 57 547 175 723 397 723 c 0xae
 431 723 463 719 492 711 c 1
 492 631 l 1x36
EndSplineSet
Refer: 21 69 N 1 0 0 1 394 0 2
EndChar

StartChar: Oslash
Encoding: 216 216 77
Width: 793
VWidth: 0
GlyphClass: 2
Flags: W
HStem: -12 74<299.009 494.904> 649 74<299.009 494.904>
VStem: 57 89<226.522 484.675> 647 90<226.522 484.675>
LayerCount: 2
UndoRedoHistory
Layer: 0
Undoes
EndUndoes
Redoes
EndRedoes
EndUndoRedoHistory
UndoRedoHistory
Layer: 1
Undoes
EndUndoes
Redoes
EndRedoes
EndUndoRedoHistory
Fore
SplineSet
254 -85 m 1
 204 -69 l 1
 549 783 l 1
 602 767 l 1
 254 -85 l 1
EndSplineSet
Refer: 68 79 N 1 0 0 1 0 0 2
EndChar

StartChar: P
Encoding: 80 80 79
Width: 607
VWidth: 0
GlyphClass: 2
Flags: W
HStem: 0 21G<98 182> 287 72<182 414.641> 644 67<182 413.797>
VStem: 98 84<0 287 359 644> 482 90<420.06 583.376>
AnchorPoint: "top" 342 750 basechar 0
AnchorPoint: "bottom" 330 0 basechar 0
LayerCount: 2
UndoRedoHistory
Layer: 0
Undoes
EndUndoes
Redoes
EndRedoes
EndUndoRedoHistory
UndoRedoHistory
Layer: 1
Undoes
EndUndoes
Redoes
EndRedoes
EndUndoRedoHistory
Fore
SplineSet
98 0 m 1
 98 711 l 1
 283 711 l 2
 486 711 572 643 572 498 c 0
 572 358 476 287 295 287 c 2
 182 287 l 1
 182 0 l 1
 98 0 l 1
182 359 m 1
 304 359 l 2
 422 359 482 406 482 497 c 0
 482 597 430 644 294 644 c 2
 182 644 l 1
 182 359 l 1
EndSplineSet
EndChar

StartChar: Q
Encoding: 81 81 80
Width: 793
VWidth: 0
GlyphClass: 2
Flags: W
HStem: -12 74<299.009 494.904> 649 74<299.009 494.904>
VStem: 57 89<226.522 484.675> 647 90<226.522 484.675>
LayerCount: 2
UndoRedoHistory
Layer: 0
Undoes
EndUndoes
Redoes
EndRedoes
EndUndoRedoHistory
UndoRedoHistory
Layer: 1
Undoes
EndUndoes
Redoes
EndRedoes
EndUndoRedoHistory
Fore
SplineSet
599 -116 m 1
 423 196 l 1
 491 233 l 1
 662 -82 l 1
 599 -116 l 1
EndSplineSet
Refer: 68 79 N 1 0 0 1 0 0 2
EndChar

StartChar: R
Encoding: 82 82 81
Width: 643
VWidth: 0
GlyphClass: 2
Flags: W
HStem: 0 21G<98 182 508.113 612> 318 72<182 331> 644 67<182 426.292>
VStem: 98 84<0 318 390 644> 481 89<447.307 591.547>
AnchorPoint: "top" 342 750 basechar 0
AnchorPoint: "bottom" 330 0 basechar 0
LayerCount: 2
UndoRedoHistory
Layer: 0
Undoes
EndUndoes
Redoes
EndRedoes
EndUndoRedoHistory
UndoRedoHistory
Layer: 1
Undoes
EndUndoes
Redoes
EndRedoes
EndUndoRedoHistory
Fore
SplineSet
98 0 m 1
 98 711 l 1
 268 711 l 2
 425 711 570 688 570 524 c 0
 570 430 520 361 406 331 c 1
 612 0 l 1
 520 0 l 1
 331 318 l 1
 182 318 l 1
 182 0 l 1
 98 0 l 1
182 390 m 1
 306 390 l 2
 398 390 481 420 481 517 c 0
 481 620 407 644 312 644 c 2
 182 644 l 1
 182 390 l 1
EndSplineSet
EndChar

StartChar: S
Encoding: 83 83 85
Width: 579
VWidth: 0
GlyphClass: 2
Flags: W
HStem: -12 74<192.144 382.807> 649 74<207.749 406.177>
VStem: 73 85<472.269 603.78> 436 83<113.245 257.916>
AnchorPoint: "top" 295 750 basechar 0
AnchorPoint: "bottom" 287 -0 basechar 0
LayerCount: 2
UndoRedoHistory
Layer: 0
Undoes
EndUndoes
Redoes
EndRedoes
EndUndoRedoHistory
UndoRedoHistory
Layer: 1
Undoes
EndUndoes
Redoes
EndRedoes
EndUndoRedoHistory
Fore
SplineSet
300 -12 m 0
 207 -12 119 28 75 62 c 1
 100 136 l 1
 145 98 227 62 298 62 c 0
 388 62 436 112 436 192 c 0
 436 251 411 288 265 334 c 0
 127 377 72 432 73 540 c 0
 74 658 171 723 296 723 c 0
 380 723 446 696 498 658 c 1
 466 594 l 1
 426 623 367 649 306 649 c 0
 218 649 159 614 158 544 c 0
 156 473 186 444 313 403 c 1
 477 351 519 290 519 191 c 0
 519 71 437 -12 300 -12 c 0
EndSplineSet
EndChar

StartChar: T
Encoding: 84 84 91
Width: 563
VWidth: 0
GlyphClass: 2
Flags: W
HStem: 0 21G<239 323> 644 67<15 239 323 549>
VStem: 239 84<0 644>
AnchorPoint: "top" 283 750 basechar 0
AnchorPoint: "bottom" 340 0 basechar 0
LayerCount: 2
UndoRedoHistory
Layer: 0
Undoes
EndUndoes
Redoes
EndRedoes
EndUndoRedoHistory
UndoRedoHistory
Layer: 1
Undoes
EndUndoes
Redoes
EndRedoes
EndUndoRedoHistory
Fore
SplineSet
239 0 m 1
 239 644 l 1
 15 644 l 1
 15 711 l 1
 549 711 l 1
 549 644 l 1
 323 644 l 1
 323 0 l 1
 239 0 l 1
EndSplineSet
EndChar

StartChar: Thorn
Encoding: 222 222 94
Width: 615
VWidth: 0
GlyphClass: 2
Flags: W
HStem: 0 21G<104 188> 216 73<188 435.852> 568 73<188 433.565> 691 20G<104 188>
VStem: 104 84<0 216 289 568 641 711> 490 90<342.415 513.234>
LayerCount: 2
UndoRedoHistory
Layer: 0
Undoes
EndUndoes
Redoes
EndRedoes
EndUndoRedoHistory
UndoRedoHistory
Layer: 1
Undoes
EndUndoes
Redoes
EndRedoes
EndUndoRedoHistory
Fore
SplineSet
104 0 m 1
 104 711 l 1
 188 711 l 1
 188 641 l 1
 293 641 l 2
 460 641 580 601 580 428 c 0
 580 271 475 216 318 216 c 2
 188 216 l 1
 188 0 l 1
 104 0 l 1
188 289 m 1
 336 289 l 2
 439 289 490 329 490 427 c 0
 490 544 425 568 313 568 c 2
 188 568 l 1
 188 289 l 1
EndSplineSet
EndChar

StartChar: U
Encoding: 85 85 95
Width: 709
VWidth: 0
GlyphClass: 2
Flags: W
HStem: -12 74<254.4 454.441> 691 20G<83 167 543 626>
VStem: 83 84<154.855 711> 543 83<157.388 711>
AnchorPoint: "top" 320 750 basechar 0
AnchorPoint: "bottom" 403 0 basechar 0
AnchorPoint: "ogonek" 415 0 basechar 0
LayerCount: 2
UndoRedoHistory
Layer: 0
Undoes
EndUndoes
Redoes
EndRedoes
EndUndoRedoHistory
UndoRedoHistory
Layer: 1
Undoes
EndUndoes
Redoes
EndRedoes
EndUndoRedoHistory
Fore
SplineSet
360 -12 m 0
 180 -12 83 76 83 264 c 2
 83 711 l 1
 167 711 l 1
 167 267 l 2
 167 127 233 62 360 62 c 0
 478 62 543 136 543 263 c 2
 543 711 l 1
 626 711 l 1
 626 269 l 1
 625 93 530 -12 360 -12 c 0
EndSplineSet
EndChar

StartChar: V
Encoding: 86 86 106
Width: 641
VWidth: 0
GlyphClass: 2
Flags: W
HStem: 0 21G<271.405 377.398> 691 20G<9 108.283 535.948 633>
LayerCount: 2
UndoRedoHistory
Layer: 0
Undoes
EndUndoes
Redoes
EndRedoes
EndUndoRedoHistory
UndoRedoHistory
Layer: 1
Undoes
EndUndoes
Redoes
EndRedoes
EndUndoRedoHistory
Fore
SplineSet
279 0 m 1
 9 711 l 1
 101 711 l 1
 302 159 l 1
 324 90 l 1
 348 158 l 1
 543 711 l 1
 633 711 l 1
 370 0 l 1
 279 0 l 1
EndSplineSet
EndChar

StartChar: W
Encoding: 87 87 107
Width: 1012
VWidth: 0
GlyphClass: 2
Flags: W
HStem: 0 21G<212.177 328.076 684.957 799.823> 691 20G<11 107.582 460.678 558.225 907.492 1001>
AnchorPoint: "top" 500 750 basechar 0
AnchorPoint: "bottom" 497 0 basechar 0
LayerCount: 2
UndoRedoHistory
Layer: 0
Undoes
EndUndoes
Redoes
EndRedoes
EndUndoRedoHistory
UndoRedoHistory
Layer: 1
Undoes
EndUndoes
Redoes
EndRedoes
EndUndoRedoHistory
Fore
SplineSet
218 0 m 1
 11 711 l 1
 102 711 l 1
 253 170 l 1
 272 92 l 1
 296 170 l 1
 467 711 l 1
 552 711 l 1
 721 168 l 1
 744 93 l 1
 764 170 l 1
 913 711 l 1
 1001 711 l 1
 794 0 l 1
 691 0 l 1
 507 609 l 1
 322 0 l 1
 218 0 l 1
EndSplineSet
EndChar

StartChar: X
Encoding: 88 88 112
Width: 624
VWidth: 0
GlyphClass: 2
Flags: W
HStem: 0 21G<10 122.355 503.513 615> 691 20G<29 141.925 500.735 610>
LayerCount: 2
UndoRedoHistory
Layer: 0
Undoes
EndUndoes
Redoes
EndRedoes
EndUndoRedoHistory
UndoRedoHistory
Layer: 1
Undoes
EndUndoes
Redoes
EndRedoes
EndUndoRedoHistory
Fore
SplineSet
517 0 m 1
 312 304 l 1
 109 0 l 1
 10 0 l 1
 266 362 l 1
 29 711 l 1
 129 711 l 1
 319 417 l 1
 514 711 l 1
 610 711 l 1
 367 362 l 1
 615 0 l 1
 517 0 l 1
EndSplineSet
EndChar

StartChar: Y
Encoding: 89 89 113
Width: 603
VWidth: 0
GlyphClass: 2
Flags: W
HStem: 0 21G<259 343> 691 20G<4 109.404 494.483 599>
VStem: 259 84<0 284>
AnchorPoint: "top" 303 750 basechar 0
AnchorPoint: "bottom" 305 0 basechar 0
LayerCount: 2
UndoRedoHistory
Layer: 0
Undoes
EndUndoes
Redoes
EndRedoes
EndUndoRedoHistory
UndoRedoHistory
Layer: 1
Undoes
EndUndoes
Redoes
EndRedoes
EndUndoRedoHistory
Fore
SplineSet
259 0 m 1
 259 284 l 1
 4 711 l 1
 98 711 l 1
 301 355 l 1
 506 711 l 1
 599 711 l 1
 343 286 l 1
 343 0 l 1
 259 0 l 1
EndSplineSet
EndChar

StartChar: Z
Encoding: 90 90 118
Width: 590
VWidth: 0
GlyphClass: 2
Flags: W
HStem: 0 67<161 553> 644 67<65 444>
AnchorPoint: "top" 342 750 basechar 0
AnchorPoint: "bottom" 330 0 basechar 0
LayerCount: 2
UndoRedoHistory
Layer: 0
Undoes
EndUndoes
Redoes
EndRedoes
EndUndoRedoHistory
UndoRedoHistory
Layer: 1
Undoes
EndUndoes
Redoes
EndRedoes
EndUndoRedoHistory
Fore
SplineSet
50 0 m 1
 50 45 l 1
 444 644 l 1
 65 644 l 1
 65 711 l 1
 557 711 l 1
 557 668 l 1
 161 67 l 1
 553 67 l 1
 553 0 l 1
 50 0 l 1
EndSplineSet
EndChar

StartChar: a
Encoding: 97 97 122
Width: 584
VWidth: 0
GlyphClass: 2
Flags: W
HStem: -11 67<200.649 341.711 509.407 546> 447 67<247.955 409.021>
VStem: 58 83<121.53 330.564> 410 80<129.146 440.944>
AnchorPoint: "top" 330 548 basechar 0
AnchorPoint: "bottom" 301 0 basechar 0
AnchorPoint: "ogonek" 485 0 basechar 0
LayerCount: 2
UndoRedoHistory
Layer: 0
Undoes
EndUndoes
Redoes
EndRedoes
EndUndoRedoHistory
UndoRedoHistory
Layer: 1
Undoes
EndUndoes
Redoes
EndRedoes
EndUndoRedoHistory
Fore
SplineSet
254 -11 m 0
 139 -11 58 79 58 214 c 0
 58 393 176 514 335 514 c 0
 397 514 452 497 490 477 c 1
 490 136 l 2
 490 86 505 63 561 59 c 1
 546 -7 l 1
 468 -7 432 24 419 79 c 1
 387 24 327 -11 254 -11 c 0
266 56 m 0
 356 56 410 127 410 221 c 2
 410 435 l 1
 390 441 369 447 334 447 c 0
 226 447 141 365 141 219 c 0
 141 121 191 56 266 56 c 0
EndSplineSet
EndChar

StartChar: acute
Encoding: 180 180 126
Width: 301
VWidth: 0
GlyphClass: 2
Flags: W
HStem: 555 156
VStem: 45 214
LayerCount: 2
UndoRedoHistory
Layer: 0
Undoes
EndUndoes
Redoes
EndRedoes
EndUndoRedoHistory
UndoRedoHistory
Layer: 1
Undoes
EndUndoes
Redoes
EndRedoes
EndUndoRedoHistory
Fore
SplineSet
45 555 m 1
 156 711 l 1
 259 711 l 1
 109 555 l 1
 45 555 l 1
EndSplineSet
EndChar

StartChar: ae
Encoding: 230 230 129
Width: 837
VWidth: 0
GlyphClass: 2
Flags: W
HStem: -11 67<155.655 311.728 528.657 710.154> 217 59<450 624.656> 241 56<181.525 377> 447 67<150.471 329.543 531.346 673.994>
VStem: 44 83<84.118 198.379> 377 72<144.261 217 297 357.755> 697 80<323.905 423.713>
LayerCount: 2
UndoRedoHistory
Layer: 0
Undoes
EndUndoes
Redoes
EndRedoes
EndUndoRedoHistory
UndoRedoHistory
Layer: 1
Undoes
EndUndoes
Redoes
EndRedoes
EndUndoRedoHistory
Fore
SplineSet
220 -11 m 0xde
 113 -11 44 47 44 140 c 0
 44 301 217 297 377 297 c 1xbe
 377 309 l 2
 377 406 325 447 259 447 c 0
 206 447 151 439 97 390 c 1
 63 443 l 1
 133 498 192 514 264 514 c 0
 338 514 400 477 426 415 c 1
 461 475 522 514 609 514 c 0
 710 514 777 451 777 369 c 0
 777 249 612 217 450 217 c 1
 462 113 524 56 614 56 c 0
 688 56 732 87 764 113 c 1
 797 60 l 1
 738 13 684 -11 608 -11 c 0
 520 -11 453 30 416 104 c 1
 382 42 322 -11 220 -11 c 0xde
231 56 m 0
 338 56 378 135 378 241 c 1
 311 239 l 2
 221 237 127 227 127 144 c 0
 127 82 169 56 231 56 c 0
449 276 m 1xde
 563 276 697 291 697 370 c 0
 697 416 665 447 609 447 c 0
 528 447 456 387 449 276 c 1xde
EndSplineSet
EndChar

StartChar: ampersand
Encoding: 38 38 132
Width: 752
VWidth: 0
GlyphClass: 2
Flags: W
HStem: -12 74<191.861 388.727> 659 65<230.842 355.909>
VStem: 45 83<123.724 276.847> 130 77<501.11 635.456> 380 75<521.006 635.165> 570 77<296.463 424>
LayerCount: 2
UndoRedoHistory
Layer: 0
Undoes
EndUndoes
Redoes
EndRedoes
EndUndoRedoHistory
UndoRedoHistory
Layer: 1
Undoes
EndUndoes
Redoes
EndRedoes
EndUndoRedoHistory
Fore
SplineSet
290 -12 m 0
 149 -12 45 68 45 196 c 0
 45 321 148 374 216 419 c 1
 176 463 130 508 130 581 c 0
 130 679 202 724 290 724 c 0
 385 724 455 672 455 581 c 0
 455 495 378 440 318 403 c 1
 503 196 l 1
 533 242 555 304 565 372 c 0
 568 394 570 414 570 435 c 1
 647 424 l 1
 643 307 604 210 554 140 c 1
 588 103 618 74 668 56 c 0
 682 51 699 46 718 42 c 1
 658 -6 l 1
 590 5 553 49 513 91 c 1
 461 34 393 -12 290 -12 c 0
288 62 m 0
 372 62 422 97 464 143 c 1
 260 369 l 1
 197 333 128 287 128 200 c 0
 128 99 205 62 288 62 c 0
272 450 m 1
 321 479 380 520 380 579 c 0
 380 633 341 659 293 659 c 0
 244 659 207 633 207 579 c 0
 207 516 236 486 272 450 c 1
EndSplineSet
EndChar

StartChar: approxequal
Encoding: 8776 8776 134
Width: 648
VWidth: 0
GlyphClass: 2
Flags: W
HStem: 128 58<377.353 482.422> 208 59<167.856 282.977> 310 57<374.761 481.447> 390 58<166.302 283.818>
VStem: 80 56<139.5 174.718 321.582 358.269> 515 54<221.439 254.815 403.105 436.655>
LayerCount: 2
UndoRedoHistory
Layer: 0
Undoes
EndUndoes
Redoes
EndRedoes
EndUndoRedoHistory
UndoRedoHistory
Layer: 1
Undoes
EndUndoes
Redoes
EndRedoes
EndUndoRedoHistory
Fore
SplineSet
136 127 m 1
 80 141 l 1
 97 211 143 267 222 267 c 0
 320 267 382 186 434 186 c 0
 481 186 500 226 515 267 c 1
 569 253 l 1
 553 183 513 128 431 128 c 0
 341 128 282 208 221 208 c 0
 171 208 148 170 136 127 c 1
135 310 m 1
 79 323 l 1
 95 395 141 448 221 448 c 0
 310 448 378 367 433 367 c 0
 480 367 500 406 514 448 c 1
 568 435 l 1
 553 364 511 310 430 310 c 0
 340 310 282 390 219 390 c 0
 169 390 147 352 135 310 c 1
EndSplineSet
EndChar

StartChar: asciicircum
Encoding: 94 94 136
Width: 678
VWidth: 0
GlyphClass: 2
Flags: W
LayerCount: 2
UndoRedoHistory
Layer: 0
Undoes
EndUndoes
Redoes
EndRedoes
EndUndoRedoHistory
UndoRedoHistory
Layer: 1
Undoes
EndUndoes
Redoes
EndRedoes
EndUndoRedoHistory
Fore
SplineSet
84 269 m 1
 314 699 l 1
 362 699 l 1
 596 269 l 1
 520 269 l 1
 337 615 l 1
 160 269 l 1
 84 269 l 1
EndSplineSet
EndChar

StartChar: asciitilde
Encoding: 126 126 137
Width: 649
VWidth: 0
GlyphClass: 2
Flags: W
HStem: 200 66<370.107 484.062> 279 65<165.022 292.762>
VStem: 73 56<211.625 238.813> 517 61<303.117 336.18>
LayerCount: 2
UndoRedoHistory
Layer: 0
Undoes
EndUndoes
Redoes
EndRedoes
EndUndoRedoHistory
UndoRedoHistory
Layer: 1
Undoes
EndUndoes
Redoes
EndRedoes
EndUndoRedoHistory
Fore
SplineSet
129 188 m 1
 73 215 l 1
 89 290 142 344 217 344 c 0
 246 344 272 333 295 324 c 0
 343 304 401 266 436 266 c 0
 483 266 508 313 517 353 c 1
 578 334 l 1
 560 258 511 200 435 200 c 0
 411 200 387 212 367 221 c 0
 319 243 260 279 218 279 c 0
 166 279 139 232 129 188 c 1
EndSplineSet
EndChar

StartChar: asterisk
Encoding: 42 42 138
Width: 521
VWidth: 0
GlyphClass: 2
Flags: W
HStem: 691 20G<226 301>
LayerCount: 2
UndoRedoHistory
Layer: 0
Undoes
EndUndoes
Redoes
EndRedoes
EndUndoRedoHistory
UndoRedoHistory
Layer: 1
Undoes
EndUndoes
Redoes
EndRedoes
EndUndoRedoHistory
Fore
SplineSet
346 362 m 1
 269 492 l 1
 193 361 l 1
 132 398 l 1
 229 519 l 1
 86 562 l 1
 106 623 l 1
 244 563 l 1
 226 711 l 1
 301 711 l 1
 291 565 l 1
 404 625 l 1
 436 563 l 1
 308 521 l 1
 407 398 l 1
 346 362 l 1
EndSplineSet
EndChar

StartChar: at
Encoding: 64 64 139
Width: 953
VWidth: 0
GlyphClass: 2
Flags: W
HStem: -30 50<366.173 626.674> 147 53<374.901 492.1> 151 37<623.821 718.544> 531 47<437.337 554.942> 698 46<371.882 609.69>
VStem: 91 62<229.04 475.14> 274 68<233.758 419.011> 571 48<191.454 256> 809 55<292.628 516.661>
LayerCount: 2
UndoRedoHistory
Layer: 0
Undoes
EndUndoes
Redoes
EndRedoes
EndUndoRedoHistory
UndoRedoHistory
Layer: 1
Undoes
EndUndoes
Redoes
EndRedoes
EndUndoRedoHistory
Fore
SplineSet
489 -30 m 0xbf80
 265 -30 91 129 91 355 c 0
 91 582 271 744 491 744 c 0
 693 744 864 612 864 410 c 0
 864 257 766 151 658 151 c 0xbf80
 600 151 571 194 571 256 c 1
 544 191 475 147 421 147 c 0xdf80
 314 147 274 241 274 320 c 0
 274 460 384 578 502 578 c 0
 552 578 592 555 610 521 c 1
 619 562 l 1
 687 562 l 1
 645 369 619 264 619 230 c 0
 619 203 630 188 658 188 c 0
 741 188 809 280 809 411 c 0
 809 589 657 698 490 698 c 0
 297 698 153 551 153 354 c 0
 153 151 294 20 492 20 c 0
 619 20 684 60 742 112 c 1
 770 83 l 1
 710 15 612 -30 489 -30 c 0xbf80
434 200 m 0xdf80
 522 200 584 326 584 423 c 0
 584 479 558 531 504 531 c 0
 415 531 342 429 342 310 c 0
 342 238 380 200 434 200 c 0xdf80
EndSplineSet
EndChar

StartChar: b
Encoding: 98 98 141
Width: 581
VWidth: 0
GlyphClass: 2
Flags: W
HStem: -11 67<165.774 352.349> 447 67<243.166 384.186> 712 20G<84 165>
VStem: 84 81<66.6787 369.927 424 732> 443 83<160.869 376.928>
AnchorPoint: "top" 386 750 basechar 0
AnchorPoint: "bottom" 403 0 basechar 0
LayerCount: 2
UndoRedoHistory
Layer: 0
Undoes
EndUndoes
Redoes
EndRedoes
EndUndoRedoHistory
UndoRedoHistory
Layer: 1
Undoes
EndUndoes
Redoes
EndRedoes
EndUndoRedoHistory
Fore
SplineSet
278 -11 m 0
 164 -11 84 35 84 35 c 1
 84 732 l 1
 165 732 l 1
 165 424 l 1
 210 489 265 514 331 514 c 0
 440 514 526 422 526 266 c 0
 526 105 426 -11 278 -11 c 0
275 56 m 0
 384 56 443 156 443 269 c 0
 443 388 388 447 319 447 c 0
 244 447 165 386 165 293 c 2
 165 74 l 1
 165 74 203 56 275 56 c 0
EndSplineSet
EndChar

StartChar: backslash
Encoding: 92 92 142
Width: 465
VWidth: 0
GlyphClass: 2
Flags: W
HStem: 0 21G<339.364 427> 691 20G<41 130.579>
LayerCount: 2
UndoRedoHistory
Layer: 0
Undoes
EndUndoes
Redoes
EndRedoes
EndUndoRedoHistory
UndoRedoHistory
Layer: 1
Undoes
EndUndoes
Redoes
EndRedoes
EndUndoRedoHistory
Fore
SplineSet
348 0 m 1
 41 711 l 1
 122 711 l 1
 427 0 l 1
 348 0 l 1
EndSplineSet
EndChar

StartChar: bar
Encoding: 124 124 143
Width: 275
VWidth: 0
GlyphClass: 2
Flags: W
VStem: 98 80<-98 752>
LayerCount: 2
UndoRedoHistory
Layer: 0
Undoes
EndUndoes
Redoes
EndRedoes
EndUndoRedoHistory
UndoRedoHistory
Layer: 1
Undoes
EndUndoes
Redoes
EndRedoes
EndUndoRedoHistory
Fore
SplineSet
98 -98 m 1
 98 752 l 1
 178 752 l 1
 178 -98 l 1
 98 -98 l 1
EndSplineSet
EndChar

StartChar: braceleft
Encoding: 123 123 144
Width: 364
VWidth: 0
GlyphClass: 2
Flags: W
HStem: -110 70<246.442 321> 273 66<41 98.4875> 653 70<251.457 321>
VStem: 134 82<-7.29898 235.875 375.166 621.548>
LayerCount: 2
UndoRedoHistory
Layer: 0
Undoes
EndUndoes
Redoes
EndRedoes
EndUndoRedoHistory
UndoRedoHistory
Layer: 1
Undoes
EndUndoes
Redoes
EndRedoes
EndUndoRedoHistory
Fore
SplineSet
321 -110 m 1
 212 -107 134 -62 134 34 c 2
 134 156 l 2
 134 219 109 267 41 273 c 1
 41 339 l 1
 97 343 134 382 134 445 c 1
 134 564 l 2
 134 659 193 723 321 723 c 1
 321 653 l 1
 266 652 216 626 216 561 c 2
 216 427 l 2
 216 359 179 321 128 305 c 1
 185 284 216 228 216 176 c 2
 216 62 l 2
 216 -21 267 -40 321 -40 c 1
 321 -110 l 1
EndSplineSet
EndChar

StartChar: braceright
Encoding: 125 125 145
Width: 364
VWidth: 0
GlyphClass: 2
Flags: W
HStem: -110 70<44 113.543> 273 66<267.218 325> 653 70<44 114.927>
VStem: 149 82<-5.66988 236.434 376.625 620.299>
LayerCount: 2
UndoRedoHistory
Layer: 0
Undoes
EndUndoes
Redoes
EndRedoes
EndUndoRedoHistory
UndoRedoHistory
Layer: 1
Undoes
EndUndoes
Redoes
EndRedoes
EndUndoRedoHistory
Fore
SplineSet
44 723 m 1
 153 720 231 675 231 579 c 2
 231 457 l 2
 231 394 257 345 325 339 c 1
 325 273 l 1
 269 269 231 230 231 167 c 1
 231 48 l 2
 231 -47 172 -110 44 -110 c 1
 44 -40 l 1
 99 -39 149 -13 149 52 c 2
 149 186 l 2
 149 254 186 292 237 308 c 1
 180 329 149 385 149 437 c 2
 149 550 l 2
 149 633 98 653 44 653 c 1
 44 723 l 1
EndSplineSet
EndChar

StartChar: bracketleft
Encoding: 91 91 146
Width: 356
VWidth: 0
GlyphClass: 2
Flags: W
HStem: -98 60<174 269> 678 59<174 269>
VStem: 95 174<-98 -38 678 737> 95 79<-38 678>
LayerCount: 2
UndoRedoHistory
Layer: 0
Undoes
EndUndoes
Redoes
EndRedoes
EndUndoRedoHistory
UndoRedoHistory
Layer: 1
Undoes
EndUndoes
Redoes
EndRedoes
EndUndoRedoHistory
Fore
SplineSet
95 -98 m 1xe0
 95 737 l 1
 269 737 l 1
 269 678 l 1xe0
 174 678 l 1
 174 -38 l 1xd0
 269 -38 l 1
 269 -98 l 1
 95 -98 l 1xe0
EndSplineSet
EndChar

StartChar: bracketright
Encoding: 93 93 147
Width: 356
VWidth: 0
GlyphClass: 2
Flags: W
HStem: -98 60<89 183> 678 59<88 183>
VStem: 89 174<-98 -38 678 737> 183 80<-38 678>
LayerCount: 2
UndoRedoHistory
Layer: 0
Undoes
EndUndoes
Redoes
EndRedoes
EndUndoRedoHistory
UndoRedoHistory
Layer: 1
Undoes
EndUndoes
Redoes
EndRedoes
EndUndoRedoHistory
Fore
SplineSet
263 737 m 1xe0
 263 -98 l 1
 89 -98 l 1
 89 -38 l 1xe0
 183 -38 l 1
 183 678 l 1xd0
 88 678 l 1
 88 737 l 1
 263 737 l 1xe0
EndSplineSet
EndChar

StartChar: breve
Encoding: 728 728 148
Width: 312
VWidth: 0
GlyphClass: 2
Flags: W
HStem: 596 52<104.024 209.461> 691 20G<40 86.5 229 276>
VStem: 40 43<669.056 711> 234 42<674.748 711>
AnchorPoint: "top" 160 511 mark 0
LayerCount: 2
UndoRedoHistory
Layer: 0
Undoes
EndUndoes
Redoes
EndRedoes
EndUndoRedoHistory
UndoRedoHistory
Layer: 1
Undoes
EndUndoes
Redoes
EndRedoes
EndUndoRedoHistory
Fore
SplineSet
158 596 m 0
 102 596 46 634 40 711 c 1
 83 711 l 1
 90 669 122 648 155 648 c 0
 189 648 224 669 234 711 c 1
 276 711 l 1
 270 634 214 596 158 596 c 0
EndSplineSet
EndChar

StartChar: brokenbar
Encoding: 166 166 149
Width: 271
VWidth: 0
GlyphClass: 2
Flags: W
VStem: 98 76<-240 192 331 754>
LayerCount: 2
UndoRedoHistory
Layer: 0
Undoes
EndUndoes
Redoes
EndRedoes
EndUndoRedoHistory
UndoRedoHistory
Layer: 1
Undoes
EndUndoes
Redoes
EndRedoes
EndUndoRedoHistory
Fore
SplineSet
98 -240 m 1
 98 192 l 1
 174 192 l 1
 174 -240 l 1
 98 -240 l 1
98 331 m 1
 98 754 l 1
 174 754 l 1
 174 331 l 1
 98 331 l 1
EndSplineSet
EndChar

StartChar: bullet
Encoding: 8226 8226 150
Width: 502
VWidth: 0
GlyphClass: 2
Flags: W
HStem: 208 306<171.085 335.024>
VStem: 93 317<281.228 438.459>
LayerCount: 2
UndoRedoHistory
Layer: 0
Undoes
EndUndoes
Redoes
EndRedoes
EndUndoRedoHistory
UndoRedoHistory
Layer: 1
Undoes
EndUndoes
Redoes
EndRedoes
EndUndoRedoHistory
Fore
SplineSet
250 208 m 0
 152 208 93 280 93 359 c 0
 93 459 175 514 252 514 c 0
 351 514 410 440 410 363 c 0
 410 267 343 208 250 208 c 0
EndSplineSet
EndChar

StartChar: c
Encoding: 99 99 151
Width: 500
VWidth: 0
GlyphClass: 2
Flags: W
HStem: -11 67<222.786 392.33> 447 67<227.587 396.236>
VStem: 55 83<145.846 352.182>
AnchorPoint: "top" 292 562 basechar 0
AnchorPoint: "bottom" 292 0 basechar 0
LayerCount: 2
UndoRedoHistory
Layer: 0
Undoes
EndUndoes
Redoes
EndRedoes
EndUndoRedoHistory
UndoRedoHistory
Layer: 1
Undoes
EndUndoes
Redoes
EndRedoes
EndUndoRedoHistory
Fore
SplineSet
469 50 m 1
 419 10 356 -11 295 -11 c 0
 166 -11 55 88 55 250 c 0
 55 419 176 514 304 514 c 0
 357 514 411 497 458 463 c 1
 434 403 l 1
 396 430 353 447 311 447 c 0
 221 447 138 383 138 249 c 0
 138 124 212 56 302 56 c 0
 351 56 403 76 440 110 c 1
 469 50 l 1
EndSplineSet
EndChar

StartChar: caron
Encoding: 711 711 153
Width: 346
VWidth: 0
GlyphClass: 2
Flags: W
HStem: 553 158
VStem: 19 309
LayerCount: 2
UndoRedoHistory
Layer: 0
Undoes
EndUndoes
Redoes
EndRedoes
EndUndoRedoHistory
UndoRedoHistory
Layer: 1
Undoes
EndUndoes
Redoes
EndRedoes
EndUndoRedoHistory
Fore
SplineSet
136 553 m 1
 19 711 l 1
 91 711 l 1
 171 606 l 1
 253 711 l 1
 328 711 l 1
 212 553 l 1
 136 553 l 1
EndSplineSet
EndChar

StartChar: cedilla
Encoding: 184 184 159
Width: 372
VWidth: 0
GlyphClass: 2
Flags: W
HStem: -193 40<87.1733 213.086> -82 90<146 184.516> -82 38<185 212.449>
VStem: 217 70<-148.133 -86.7579>
AnchorPoint: "bottom" 190 0 mark 0
LayerCount: 2
UndoRedoHistory
Layer: 0
Undoes
EndUndoes
Redoes
EndRedoes
EndUndoRedoHistory
UndoRedoHistory
Layer: 1
Undoes
EndUndoes
Redoes
EndRedoes
EndUndoRedoHistory
Fore
SplineSet
169 -193 m 0xb0
 140 -193 110 -188 84 -183 c 1
 88 -141 l 1
 112 -147 136 -153 162 -153 c 0
 194 -153 217 -145 217 -118 c 0
 217 -89 193 -82 164 -82 c 0
 160 -82 151 -83 146 -83 c 2
 130 -84 l 1
 146 8 l 1
 194 8 l 1xd0
 185 -44 l 1
 189 -44 l 1
 240 -46 287 -64 287 -117 c 0
 287 -176 228 -193 169 -193 c 0xb0
EndSplineSet
EndChar

StartChar: cent
Encoding: 162 162 160
Width: 517
VWidth: 0
GlyphClass: 2
Flags: W
HStem: -10 70<213.917 270 323 405.242> 443 69<218.321 270 323 392.371>
VStem: 51 85<145.982 353.376> 270 53<-115 -7.59664 60 441 509.716 625>
LayerCount: 2
UndoRedoHistory
Layer: 0
Undoes
EndUndoes
Redoes
EndRedoes
EndUndoRedoHistory
UndoRedoHistory
Layer: 1
Undoes
EndUndoes
Redoes
EndRedoes
EndUndoRedoHistory
Fore
SplineSet
270 -115 m 1
 270 -10 l 1
 145 3 51 104 51 246 c 0
 51 393 135 500 270 512 c 1
 270 625 l 1
 323 625 l 1
 323 512 l 1
 386 507 436 484 465 445 c 1
 427 391 l 1
 403 421 368 439 323 443 c 1
 323 59 l 1
 363 63 408 78 455 110 c 1
 473 42 l 1
 421 11 369 -5 323 -10 c 1
 323 -115 l 1
 270 -115 l 1
270 60 m 1
 270 441 l 1
 182 426 136 349 136 248 c 0
 136 139 190 73 270 60 c 1
EndSplineSet
EndChar

StartChar: circumflex
Encoding: 710 710 161
Width: 346
VWidth: 0
GlyphClass: 2
Flags: W
HStem: 553 158
VStem: 22 300
LayerCount: 2
UndoRedoHistory
Layer: 0
Undoes
EndUndoes
Redoes
EndRedoes
EndUndoRedoHistory
UndoRedoHistory
Layer: 1
Undoes
EndUndoes
Redoes
EndRedoes
EndUndoRedoHistory
Fore
SplineSet
133 711 m 1
 210 711 l 1
 322 553 l 1
 257 553 l 1
 170 658 l 1
 83 553 l 1
 22 553 l 1
 133 711 l 1
EndSplineSet
EndChar

StartChar: colon
Encoding: 58 58 163
Width: 317
VWidth: 0
GlyphClass: 2
Flags: W
HStem: 23 121<108.946 209.601> 406 120<108.946 209.601>
VStem: 95 129<36.7655 129.851 419.766 512.234>
LayerCount: 2
UndoRedoHistory
Layer: 0
Undoes
EndUndoes
Redoes
EndRedoes
EndUndoRedoHistory
UndoRedoHistory
Layer: 1
Undoes
EndUndoes
Redoes
EndRedoes
EndUndoRedoHistory
Fore
SplineSet
159 144 m 0
 202 144 224 113 224 83 c 0
 224 53 202 23 159 23 c 0
 116 23 95 53 95 83 c 0
 95 113 116 144 159 144 c 0
159 526 m 0
 202 526 224 496 224 466 c 0
 224 436 202 406 159 406 c 0
 116 406 95 436 95 466 c 0
 95 496 116 526 159 526 c 0
EndSplineSet
EndChar

StartChar: comma
Encoding: 44 44 164
Width: 280
VWidth: 0
GlyphClass: 2
Flags: W
HStem: -151 252<122 134>
VStem: 70 143
AnchorPoint: "bottom" 152 169 mark 0
LayerCount: 2
UndoRedoHistory
Layer: 0
Undoes
EndUndoes
Redoes
EndRedoes
EndUndoRedoHistory
UndoRedoHistory
Layer: 1
Undoes
EndUndoes
Redoes
EndRedoes
EndUndoRedoHistory
Fore
SplineSet
70 -151 m 1
 122 101 l 1
 213 101 l 1
 134 -151 l 1
 70 -151 l 1
EndSplineSet
EndChar

StartChar: copyright
Encoding: 169 169 166
Width: 917
VWidth: 0
GlyphClass: 2
Flags: W
HStem: -12 51<350.792 566.069> 122 64<395.417 573.554> 527 63<390.509 565.678> 669 54<350.792 566.069>
VStem: 92 59<238.64 466.331> 243 75<261.389 451.53> 766 60<242.921 466.331>
LayerCount: 2
UndoRedoHistory
Layer: 0
Undoes
EndUndoes
Redoes
EndRedoes
EndUndoRedoHistory
UndoRedoHistory
Layer: 1
Undoes
EndUndoes
Redoes
EndRedoes
EndUndoRedoHistory
Fore
SplineSet
471 122 m 0
 327 122 243 231 243 356 c 0
 243 509 345 590 476 590 c 0
 530 590 576 574 614 540 c 1
 600 481 l 1
 566 512 523 527 473 527 c 0
 370 527 318 449 318 358 c 0
 318 246 383 186 486 186 c 0
 533 186 570 201 598 225 c 1
 616 166 l 1
 575 137 527 122 471 122 c 0
459 723 m 0
 661 723 826 557 826 355 c 0
 826 153 661 -12 459 -12 c 0
 257 -12 92 153 92 355 c 0
 92 557 257 723 459 723 c 0
458 39 m 0
 629 39 766 183 766 354 c 0
 766 526 629 669 458 669 c 0
 286 669 151 526 151 354 c 0
 151 183 286 39 458 39 c 0
EndSplineSet
EndChar

StartChar: currency
Encoding: 164 164 167
Width: 599
VWidth: 0
GlyphClass: 2
Flags: W
HStem: 134 37<229.233 364.465> 471 41<229.306 368.092>
VStem: 113 43<242.802 399.022> 438 45<240.969 402.357>
LayerCount: 2
UndoRedoHistory
Layer: 0
Undoes
EndUndoes
Redoes
EndRedoes
EndUndoRedoHistory
UndoRedoHistory
Layer: 1
Undoes
EndUndoes
Redoes
EndRedoes
EndUndoRedoHistory
Fore
SplineSet
501 103 m 1
 420 181 l 1
 388 151 345 134 298 134 c 0
 255 134 215 150 183 177 c 1
 104 95 l 1
 87 113 l 1
 165 194 l 1
 134 228 113 273 113 323 c 0
 113 368 131 410 159 443 c 1
 80 520 l 1
 99 539 l 1
 177 462 l 1
 211 493 256 513 303 512 c 0
 346 511 386 494 417 467 c 1
 493 547 l 1
 512 528 l 1
 435 448 l 1
 466 413 484 368 483 318 c 0
 482 272 466 231 438 199 c 1
 520 120 l 1
 501 103 l 1
297 171 m 0
 376 171 436 235 438 318 c 0
 440 401 380 469 301 471 c 0
 222 473 156 404 156 321 c 0
 156 238 218 171 297 171 c 0
EndSplineSet
EndChar

StartChar: d
Encoding: 100 100 168
Width: 604
VWidth: 0
GlyphClass: 2
Flags: W
HStem: -11 67<196.073 341.566 512.336 553> 447 67<236.755 414.453> 712 20G<416 496>
VStem: 55 83<123.918 334.855> 416 80<139.939 436.891 495 732>
AnchorPoint: "top" 386 750 basechar 0
AnchorPoint: "bottom" 403 0 basechar 0
LayerCount: 2
UndoRedoHistory
Layer: 0
Undoes
EndUndoes
Redoes
EndRedoes
EndUndoRedoHistory
UndoRedoHistory
Layer: 1
Undoes
EndUndoes
Redoes
EndRedoes
EndUndoRedoHistory
Fore
SplineSet
138 226 m 0
 138 114 192 56 262 56 c 0
 354 56 416 126 416 243 c 2
 416 430 l 1
 382 442 351 447 323 447 c 0
 205 447 138 351 138 226 c 0
425 79 m 1
 391 22 336 -11 256 -11 c 0
 142 -11 55 73 55 227 c 0
 55 420 183 514 318 514 c 0
 350 514 384 506 416 495 c 1
 416 732 l 1
 496 732 l 1
 496 153 l 2
 496 92 503 59 567 59 c 1
 553 -7 l 1
 480 -7 438 22 425 79 c 1
EndSplineSet
EndChar

StartChar: dagger
Encoding: 8224 8224 169
Width: 578
VWidth: 0
GlyphClass: 2
Flags: W
HStem: 0 21G<250 319> 441 60<93 250 319 485> 691 20G<250 319>
VStem: 250 69<0 441 501 711>
LayerCount: 2
UndoRedoHistory
Layer: 0
Undoes
EndUndoes
Redoes
EndRedoes
EndUndoRedoHistory
UndoRedoHistory
Layer: 1
Undoes
EndUndoes
Redoes
EndRedoes
EndUndoRedoHistory
Fore
SplineSet
250 0 m 1
 250 441 l 1
 93 441 l 1
 93 501 l 1
 250 501 l 1
 250 711 l 1
 319 711 l 1
 319 501 l 1
 485 501 l 1
 485 441 l 1
 319 441 l 1
 319 0 l 1
 250 0 l 1
EndSplineSet
EndChar

StartChar: daggerdbl
Encoding: 8225 8225 170
Width: 582
VWidth: 0
GlyphClass: 2
Flags: W
HStem: 0 21G<257 328> 215 57<93 257 328 485> 482 60<96 257 328 489> 691 20G<257 328>
VStem: 257 71<0 215 272 482 542 711>
LayerCount: 2
UndoRedoHistory
Layer: 0
Undoes
EndUndoes
Redoes
EndRedoes
EndUndoRedoHistory
UndoRedoHistory
Layer: 1
Undoes
EndUndoes
Redoes
EndRedoes
EndUndoRedoHistory
Fore
SplineSet
257 0 m 1
 257 215 l 1
 93 215 l 1
 93 272 l 1
 257 272 l 1
 257 482 l 1
 96 482 l 1
 96 542 l 1
 257 542 l 1
 257 711 l 1
 328 711 l 1
 328 542 l 1
 489 542 l 1
 489 482 l 1
 328 482 l 1
 328 272 l 1
 485 272 l 1
 485 215 l 1
 328 215 l 1
 328 0 l 1
 257 0 l 1
EndSplineSet
EndChar

StartChar: dblgravecmb
Encoding: 783 783 171
Width: 1
VWidth: 0
GlyphClass: 2
Flags: W
HStem: 558 153
VStem: -145 320
AnchorPoint: "top" 91 512 mark 0
LayerCount: 2
UndoRedoHistory
Layer: 0
Undoes
EndUndoes
Redoes
EndRedoes
EndUndoRedoHistory
UndoRedoHistory
Layer: 1
Undoes
EndUndoes
Redoes
EndRedoes
EndUndoRedoHistory
Fore
SplineSet
-11 558 m 1
 -145 711 l 1
 -59 711 l 1
 45 558 l 1
 -11 558 l 1
118 558 m 1
 -14 711 l 1
 69 711 l 1
 175 558 l 1
 118 558 l 1
EndSplineSet
EndChar

StartChar: degree
Encoding: 176 176 173
Width: 513
VWidth: 0
GlyphClass: 2
Flags: W
HStem: 398 59<192.818 319.592> 664 59<193.082 318.421>
VStem: 93 64<493.275 626.817> 356 65<493.939 626.886>
LayerCount: 2
UndoRedoHistory
Layer: 0
Undoes
EndUndoes
Redoes
EndRedoes
EndUndoRedoHistory
UndoRedoHistory
Layer: 1
Undoes
EndUndoes
Redoes
EndRedoes
EndUndoRedoHistory
Fore
SplineSet
257 457 m 0
 323 457 356 509 356 561 c 0
 356 626 310 664 257 664 c 0
 191 664 157 613 157 561 c 0
 157 496 200 457 257 457 c 0
257 398 m 0
 157 398 93 477 93 561 c 0
 93 667 176 723 257 723 c 0
 358 723 421 646 421 561 c 0
 421 455 337 398 257 398 c 0
EndSplineSet
EndChar

StartChar: dieresis
Encoding: 168 168 174
Width: 437
VWidth: 0
GlyphClass: 2
Flags: W
HStem: 625 92<102.393 173.607 264.393 335.607>
VStem: 98 80<629.393 712.607> 260 80<629.393 712.607>
AnchorPoint: "top" 213 562 mark 0
LayerCount: 2
UndoRedoHistory
Layer: 0
Undoes
EndUndoes
Redoes
EndRedoes
EndUndoRedoHistory
UndoRedoHistory
Layer: 1
Undoes
EndUndoes
Redoes
EndRedoes
EndUndoRedoHistory
Fore
SplineSet
98 665 m 2
 98 677 l 2
 98 699 116 717 138 717 c 0
 160 717 178 699 178 677 c 2
 178 665 l 2
 178 643 160 625 138 625 c 0
 116 625 98 643 98 665 c 2
260 665 m 2
 260 677 l 2
 260 699 278 717 300 717 c 0
 322 717 340 699 340 677 c 2
 340 665 l 2
 340 643 322 625 300 625 c 0
 278 625 260 643 260 665 c 2
EndSplineSet
EndChar

StartChar: divide
Encoding: 247 247 175
Width: 705
VWidth: 0
GlyphClass: 2
Flags: W
HStem: 39 103<304 405> 257 68<102 603> 438 102<304 405>
VStem: 304 101<39 142 438 540>
LayerCount: 2
UndoRedoHistory
Layer: 0
Undoes
EndUndoes
Redoes
EndRedoes
EndUndoRedoHistory
UndoRedoHistory
Layer: 1
Undoes
EndUndoes
Redoes
EndRedoes
EndUndoRedoHistory
Fore
SplineSet
304 438 m 1
 304 540 l 1
 405 540 l 1
 405 438 l 1
 304 438 l 1
102 257 m 1
 102 325 l 1
 603 325 l 1
 603 257 l 1
 102 257 l 1
304 39 m 1
 304 142 l 1
 405 142 l 1
 405 39 l 1
 304 39 l 1
EndSplineSet
EndChar

StartChar: dollar
Encoding: 36 36 176
Width: 574
VWidth: 0
GlyphClass: 2
Flags: W
HStem: -12 74<184.144 374.807> 649 74<199.749 398.177>
VStem: 65 85<472.269 603.78> 259 53<-96 794> 428 83<113.245 257.916>
LayerCount: 2
UndoRedoHistory
Layer: 0
Undoes
EndUndoes
Redoes
EndRedoes
EndUndoRedoHistory
UndoRedoHistory
Layer: 1
Undoes
EndUndoes
Redoes
EndRedoes
EndUndoRedoHistory
Fore
SplineSet
259 -96 m 1
 259 794 l 1
 312 794 l 1
 312 -96 l 1
 259 -96 l 1
EndSplineSet
Refer: 85 83 N 1 0 0 1 -8 0 2
EndChar

StartChar: dotaccent
Encoding: 729 729 177
Width: 260
VWidth: 0
GlyphClass: 2
Flags: W
HStem: 631 80<95 173>
VStem: 95 78<631 711>
AnchorPoint: "top" 154 503 mark 0
LayerCount: 2
UndoRedoHistory
Layer: 0
Undoes
EndUndoes
Redoes
EndRedoes
EndUndoRedoHistory
UndoRedoHistory
Layer: 1
Undoes
EndUndoes
Redoes
EndRedoes
EndUndoRedoHistory
Fore
SplineSet
95 631 m 1
 95 711 l 1
 173 711 l 1
 173 631 l 1
 95 631 l 1
EndSplineSet
EndChar

StartChar: dotaccentcmb
Encoding: 775 775 178
Width: 260
VWidth: 0
GlyphClass: 2
Flags: W
HStem: 608 80<95 173>
VStem: 95 78<608 688>
AnchorPoint: "top" 154 503 mark 0
LayerCount: 2
UndoRedoHistory
Layer: 0
Undoes
EndUndoes
Redoes
EndRedoes
EndUndoRedoHistory
UndoRedoHistory
Layer: 1
Undoes
EndUndoes
Redoes
EndRedoes
EndUndoRedoHistory
Fore
SplineSet
95 608 m 1
 95 688 l 1
 173 688 l 1
 173 608 l 1
 95 608 l 1
EndSplineSet
EndChar

StartChar: dotlessi
Encoding: 305 305 179
Width: 309
VWidth: 0
GlyphClass: 2
Flags: W
HStem: 481 20G<94 174>
VStem: 94 80<68.1334 501>
AnchorPoint: "top" 133 500 basechar 0
LayerCount: 2
UndoRedoHistory
Layer: 0
Undoes
EndUndoes
Redoes
EndRedoes
EndUndoRedoHistory
UndoRedoHistory
Layer: 1
Undoes
EndUndoes
Redoes
EndRedoes
EndUndoRedoHistory
Fore
SplineSet
322 13 m 1
 209 -33 94 -9 94 128 c 2
 94 501 l 1
 174 501 l 1
 174 130 l 2
 174 36 245 47 311 71 c 1
 322 13 l 1
EndSplineSet
EndChar

StartChar: dotlessj
Encoding: 567 567 180
Width: 272
VWidth: 0
GlyphClass: 2
Flags: W
HStem: -227 66<-18.4995 87.8279> 481 20G<105 186>
VStem: 105 81<-143.96 501>
AnchorPoint: "top" 146 562 basechar 0
LayerCount: 2
UndoRedoHistory
Layer: 0
Undoes
EndUndoes
Redoes
EndRedoes
EndUndoRedoHistory
UndoRedoHistory
Layer: 1
Undoes
EndUndoes
Redoes
EndRedoes
EndUndoRedoHistory
Fore
SplineSet
49 -227 m 0
 21 -227 -8 -220 -24 -216 c 1
 -17 -152 l 1
 -17 -152 10 -161 38 -161 c 0
 92 -161 105 -131 105 -37 c 2
 105 501 l 1
 186 501 l 1
 186 -41 l 2
 186 -176 147 -227 49 -227 c 0
EndSplineSet
EndChar

StartChar: e
Encoding: 101 101 181
Width: 528
VWidth: 0
GlyphClass: 2
Flags: W
HStem: -11 67<219.044 411.932> 194 59<142 277.282> 447 67<223.985 361.277>
VStem: 55 87<131.535 194 253 356.253> 388 79<321.687 420.714>
AnchorPoint: "top" 301 548 basechar 0
AnchorPoint: "bottom" 320 0 basechar 0
AnchorPoint: "ogonek" 424 27 basechar 0
LayerCount: 2
UndoRedoHistory
Layer: 0
Undoes
EndUndoes
Redoes
EndRedoes
EndUndoRedoHistory
UndoRedoHistory
Layer: 1
Undoes
EndUndoes
Redoes
EndRedoes
EndUndoRedoHistory
Fore
SplineSet
296 -11 m 0
 163 -11 55 82 55 247 c 0
 55 393 144 514 299 514 c 0
 400 514 467 451 467 369 c 0
 467 249 300 194 142 194 c 1
 156 89 242 56 301 56 c 0
 375 56 431 84 462 102 c 1
 490 49 l 1
 432 8 372 -11 296 -11 c 0
139 253 m 1
 240 253 388 291 388 370 c 0
 388 416 351 447 295 447 c 0
 214 447 139 371 139 253 c 1
EndSplineSet
EndChar

StartChar: eight
Encoding: 56 56 189
Width: 642
VWidth: 0
GlyphClass: 2
Flags: W
HStem: -12 71<232.9 407.623> 656 67<236.88 403.713>
VStem: 90 86<114.943 262.758> 107 83<469.895 610.642> 452 84<469.895 611.785> 466 87<115.231 264.888>
LayerCount: 2
UndoRedoHistory
Layer: 0
Undoes
EndUndoes
Redoes
EndRedoes
EndUndoRedoHistory
UndoRedoHistory
Layer: 1
Undoes
EndUndoes
Redoes
EndRedoes
EndUndoRedoHistory
Fore
SplineSet
321 -12 m 0xc4
 186 -12 90 65 90 184 c 0xe4
 90 288 153 349 237 375 c 1
 163 399 107 453 107 547 c 0
 107 674 211 723 321 723 c 0
 447 723 536 656 536 547 c 0xd8
 536 453 475 399 401 375 c 1
 485 349 553 288 553 184 c 0
 553 49 450 -12 321 -12 c 0xc4
321 59 m 0
 410 59 466 107 466 190 c 0
 466 281 395 322 321 338 c 1
 241 321 176 274 176 190 c 0
 176 103 237 59 321 59 c 0
321 410 m 1
 395 424 452 462 452 545 c 0
 452 621 394 656 321 656 c 0
 242 656 190 615 190 545 c 0xd8
 190 462 247 424 321 410 c 1
EndSplineSet
EndChar

StartChar: ellipsis
Encoding: 8230 8230 190
Width: 783
VWidth: 0
GlyphClass: 2
Flags: W
HStem: 0 103<83 188 340 446 597 703>
VStem: 83 105<0 103> 340 106<0 103> 597 106<0 103>
LayerCount: 2
UndoRedoHistory
Layer: 0
Undoes
EndUndoes
Redoes
EndRedoes
EndUndoRedoHistory
UndoRedoHistory
Layer: 1
Undoes
EndUndoes
Redoes
EndRedoes
EndUndoRedoHistory
Fore
SplineSet
83 0 m 1
 83 103 l 1
 188 103 l 1
 188 0 l 1
 83 0 l 1
340 0 m 1
 340 103 l 1
 446 103 l 1
 446 0 l 1
 340 0 l 1
597 0 m 1
 597 103 l 1
 703 103 l 1
 703 0 l 1
 597 0 l 1
EndSplineSet
EndChar

StartChar: emdash
Encoding: 8212 8212 192
Width: 1218
VWidth: 0
GlyphClass: 2
Flags: W
HStem: 239 67<98 1121>
LayerCount: 2
UndoRedoHistory
Layer: 0
Undoes
EndUndoes
Redoes
EndRedoes
EndUndoRedoHistory
UndoRedoHistory
Layer: 1
Undoes
EndUndoes
Redoes
EndRedoes
EndUndoRedoHistory
Fore
SplineSet
98 239 m 1
 98 306 l 1
 1121 306 l 1
 1121 239 l 1
 98 239 l 1
EndSplineSet
EndChar

StartChar: endash
Encoding: 8211 8211 193
Width: 715
VWidth: 0
GlyphClass: 2
Flags: W
HStem: 239 67<98 618>
LayerCount: 2
UndoRedoHistory
Layer: 0
Undoes
EndUndoes
Redoes
EndRedoes
EndUndoRedoHistory
UndoRedoHistory
Layer: 1
Undoes
EndUndoes
Redoes
EndRedoes
EndUndoRedoHistory
Fore
SplineSet
98 239 m 1
 98 306 l 1
 618 306 l 1
 618 239 l 1
 98 239 l 1
EndSplineSet
EndChar

StartChar: equal
Encoding: 61 61 195
Width: 622
VWidth: 0
GlyphClass: 2
Flags: W
HStem: 197 67<98 524> 395 67<98 524>
LayerCount: 2
UndoRedoHistory
Layer: 0
Undoes
EndUndoes
Redoes
EndRedoes
EndUndoRedoHistory
UndoRedoHistory
Layer: 1
Undoes
EndUndoes
Redoes
EndRedoes
EndUndoRedoHistory
Fore
SplineSet
98 197 m 1
 98 264 l 1
 524 264 l 1
 524 197 l 1
 98 197 l 1
98 395 m 1
 98 462 l 1
 524 462 l 1
 524 395 l 1
 98 395 l 1
EndSplineSet
EndChar

StartChar: eth
Encoding: 240 240 196
Width: 572
VWidth: 0
GlyphClass: 2
Flags: W
HStem: -11 69<203.815 358.927> 378 69<204.413 362.147> 691 20G<424.966 468.609> 708 20G<214.038 248.5>
VStem: 48 86<128.386 304.429>
LayerCount: 2
UndoRedoHistory
Layer: 0
Undoes
EndUndoes
Redoes
EndRedoes
EndUndoRedoHistory
UndoRedoHistory
Layer: 1
Undoes
EndUndoes
Redoes
EndRedoes
EndUndoRedoHistory
Fore
SplineSet
288 -11 m 0xe8
 141 -11 48 91 48 218 c 0
 48 361 146 447 271 447 c 0
 355 447 406 409 440 353 c 1
 440 358 l 2
 440 453 400 526 349 577 c 1
 258 518 l 1
 228 564 l 1
 306 614 l 1
 263 647 218 667 191 675 c 1
 228 728 l 1xd8
 269 714 319 690 366 653 c 1
 456 711 l 1
 485 665 l 1
 409 615 l 1
 470 552 519 459 526 328 c 0
 537 130 453 -11 288 -11 c 0xe8
284 58 m 0
 389 58 433 152 433 262 c 1
 412 324 364 378 284 378 c 0
 191 378 134 311 134 215 c 0
 134 116 199 58 284 58 c 0
EndSplineSet
EndChar

StartChar: exclam
Encoding: 33 33 197
Width: 286
VWidth: 0
GlyphClass: 2
Flags: W
HStem: -3 109<99.7427 189.257> 691 20G<96 188>
VStem: 89 111<8.33096 94.669> 96 92<562.88 711> 121 42<182 330.12>
LayerCount: 2
UndoRedoHistory
Layer: 0
Undoes
EndUndoes
Redoes
EndRedoes
EndUndoRedoHistory
UndoRedoHistory
Layer: 1
Undoes
EndUndoes
Redoes
EndRedoes
EndUndoRedoHistory
Fore
SplineSet
144 -3 m 0xe0
 108 -3 89 23 89 52 c 0
 89 86 117 106 145 106 c 0
 181 106 200 80 200 51 c 0
 200 17 172 -3 144 -3 c 0xe0
121 182 m 1xc8
 96 711 l 1
 188 711 l 1xd0
 163 182 l 1
 121 182 l 1xc8
EndSplineSet
EndChar

StartChar: f
Encoding: 102 102 199
Width: 347
VWidth: 0
GlyphClass: 2
Flags: W
HStem: 0 21G<130 208> 449 52<31 130 208 339> 671 61<240.895 363>
VStem: 130 78<0 449 501 636.316>
AnchorPoint: "top" 265 715 basechar 0
AnchorPoint: "bottom" 179 0 basechar 0
LayerCount: 2
UndoRedoHistory
Layer: 0
Undoes
EndUndoes
Redoes
EndRedoes
EndUndoRedoHistory
UndoRedoHistory
Layer: 1
Undoes
EndUndoes
Redoes
EndRedoes
EndUndoRedoHistory
Fore
SplineSet
208 0 m 1
 130 0 l 1
 130 449 l 1
 31 449 l 1
 31 501 l 1
 130 501 l 1
 130 560 l 2
 130 659 177 732 296 732 c 2
 363 732 l 1
 363 671 l 1
 312 671 l 2
 247 671 208 638 208 566 c 2
 208 501 l 1
 339 501 l 1
 339 449 l 1
 208 449 l 1
 208 0 l 1
EndSplineSet
EndChar

StartChar: f.alt
Encoding: 65537 -1 200
Width: 347
VWidth: 0
GlyphClass: 2
Flags: W
HStem: -197 66<84 117.276> 449 52<31 130 208 328> 687 58<241.375 352>
VStem: 130 78<-117.166 449 501 656.633>
LayerCount: 2
UndoRedoHistory
Layer: 0
Undoes
EndUndoes
Redoes
EndRedoes
EndUndoRedoHistory
UndoRedoHistory
Layer: 1
Undoes
EndUndoes
Redoes
EndRedoes
EndUndoRedoHistory
Fore
SplineSet
84 -197 m 1
 75 -131 l 1
 117 -124 130 -111 130 -37 c 2
 130 449 l 1
 31 449 l 1
 31 501 l 1
 130 501 l 1
 130 583 l 2
 130 707 198 745 326 745 c 2
 352 745 l 1
 352 687 l 1
 265 687 208 680 208 584 c 2
 208 501 l 1
 328 501 l 1
 328 449 l 1
 208 449 l 1
 208 -41 l 2
 208 -105 196 -192 84 -197 c 1
EndSplineSet
EndChar

StartChar: five
Encoding: 53 53 201
Width: 642
VWidth: 0
GlyphClass: 2
Flags: W
HStem: -12 72<227.949 404.091> 377 71<260.289 421.21> 638 73<225 507>
VStem: 143 72<397 565.7> 150 75<469.3 638> 476 78<133.848 318.07>
LayerCount: 2
UndoRedoHistory
Layer: 0
Undoes
EndUndoes
Redoes
EndRedoes
EndUndoRedoHistory
UndoRedoHistory
Layer: 1
Undoes
EndUndoes
Redoes
EndRedoes
EndUndoRedoHistory
Fore
SplineSet
325 -12 m 0xf4
 246 -12 161 22 103 87 c 1
 147 144 l 1
 200 83 266 60 324 60 c 0
 423 60 476 131 476 229 c 0
 476 310 434 377 348 377 c 0
 287 377 240 350 220 320 c 1
 143 341 l 1xf4
 150 711 l 1
 507 711 l 1
 507 638 l 1
 225 638 l 1xec
 215 397 l 1
 245 429 301 448 347 448 c 0
 469 448 554 361 554 229 c 0
 554 96 475 -12 325 -12 c 0xf4
EndSplineSet
EndChar

StartChar: florin
Encoding: 402 402 202
Width: 531
VWidth: 0
GlyphClass: 2
Flags: W
HStem: -118 67<40.0742 127.992> 442 59<166 234 325 412> 676 69<364.617 479.136>
LayerCount: 2
UndoRedoHistory
Layer: 0
Undoes
EndUndoes
Redoes
EndRedoes
EndUndoRedoHistory
UndoRedoHistory
Layer: 1
Undoes
EndUndoes
Redoes
EndRedoes
EndUndoRedoHistory
Fore
SplineSet
86 -118 m 0
 71 -118 54 -115 35 -110 c 1
 41 -43 l 1
 54 -48 67 -51 79 -51 c 0
 134 -51 154 2 162 47 c 2
 234 442 l 1
 157 442 l 1
 166 501 l 1
 245 501 l 1
 261 586 l 2
 279 680 307 745 413 745 c 0
 437 745 461 741 482 736 c 1
 479 665 l 1
 463 671 445 676 425 676 c 0
 369 676 350 647 342 600 c 2
 325 501 l 1
 421 501 l 1
 412 442 l 1
 315 442 l 1
 255 103 l 2
 235 -8 207 -118 86 -118 c 0
EndSplineSet
EndChar

StartChar: four
Encoding: 52 52 203
Width: 642
VWidth: 0
GlyphClass: 2
Flags: W
HStem: 0 21G<370 454> 181 68<177 370 454 565> 691 20G<281.921 373>
VStem: 370 84<0 181 249 424>
LayerCount: 2
UndoRedoHistory
Layer: 0
Undoes
EndUndoes
Redoes
EndRedoes
EndUndoRedoHistory
UndoRedoHistory
Layer: 1
Undoes
EndUndoes
Redoes
EndRedoes
EndUndoRedoHistory
Fore
SplineSet
454 424 m 1
 454 249 l 1
 565 249 l 1
 565 181 l 1
 454 181 l 1
 454 0 l 1
 370 0 l 1
 370 181 l 1
 79 181 l 1
 79 244 l 1
 291 711 l 1
 373 711 l 1
 177 249 l 1
 370 249 l 1
 370 424 l 1
 454 424 l 1
EndSplineSet
EndChar

StartChar: four.alt
Encoding: 65538 -1 204
Width: 605
VWidth: 0
GlyphClass: 2
Flags: W
HStem: 0 21G<378 462> 188 66<156 378 462 568> 691 20G<328.826 461>
VStem: 378 83<0 188 254 628>
LayerCount: 2
UndoRedoHistory
Layer: 0
Undoes
EndUndoes
Redoes
EndRedoes
EndUndoRedoHistory
UndoRedoHistory
Layer: 1
Undoes
EndUndoes
Redoes
EndRedoes
EndUndoRedoHistory
Fore
SplineSet
378 0 m 1
 378 188 l 1
 61 188 l 1
 61 251 l 1
 341 711 l 1
 461 711 l 1
 461 254 l 1
 568 254 l 1
 568 188 l 1
 462 188 l 1
 462 0 l 1
 378 0 l 1
156 254 m 1
 378 254 l 1
 378 628 l 1
 318 528 l 1
 156 254 l 1
EndSplineSet
EndChar

StartChar: fraction
Encoding: 8260 8260 205
Width: 479
VWidth: 0
GlyphClass: 2
Flags: W
HStem: 0 21G<0 85.3924> 691 20G<395.551 479>
LayerCount: 2
UndoRedoHistory
Layer: 0
Undoes
EndUndoes
Redoes
EndRedoes
EndUndoRedoHistory
UndoRedoHistory
Layer: 1
Undoes
EndUndoes
Redoes
EndRedoes
EndUndoRedoHistory
Fore
SplineSet
0 0 m 1
 407 711 l 1
 479 711 l 1
 74 0 l 1
 0 0 l 1
EndSplineSet
EndChar

StartChar: g
Encoding: 103 103 206
Width: 571
VWidth: 0
GlyphClass: 2
Flags: W
HStem: -241 67<145.059 340.801> -11 67<199.097 346.104> 447 67<238.816 415.719>
VStem: 56 83<123.035 334.981> 417 80<-92.3705 75 132.807 436.247>
AnchorPoint: "top" 318 501 basechar 0
AnchorPoint: "bottom" 287 -250 basechar 0
LayerCount: 2
UndoRedoHistory
Layer: 0
Undoes
EndUndoes
Redoes
EndRedoes
EndUndoRedoHistory
UndoRedoHistory
Layer: 1
Undoes
EndUndoes
Redoes
EndRedoes
EndUndoRedoHistory
Fore
SplineSet
260 -241 m 0
 213 -241 151 -229 102 -211 c 1
 109 -137 l 1
 153 -159 212 -174 254 -174 c 0
 352 -174 417 -111 417 5 c 2
 417 75 l 1
 380 14 321 -11 255 -11 c 0
 138 -11 56 81 56 216 c 0
 56 403 165 514 327 514 c 0
 390 514 458 497 497 472 c 1
 497 16 l 2
 497 -132 400 -241 260 -241 c 0
266 56 m 0
 366 56 417 133 417 232 c 2
 417 430 l 1
 397 436 361 447 325 447 c 0
 212 447 139 361 139 221 c 0
 139 123 190 56 266 56 c 0
EndSplineSet
EndChar

StartChar: gcommaaccent
Encoding: 291 291 209
Width: 551
VWidth: 0
GlyphClass: 2
Flags: W
HStem: -241 67<141.077 336.801> -11 68<192.754 338.824> 443 69<235.977 411.446>
VStem: 49 83<121.917 329.771> 413 80<-99.8585 65 134.439 434.008>
LayerCount: 2
UndoRedoHistory
Layer: 0
Undoes
EndUndoes
Redoes
EndRedoes
EndUndoRedoHistory
UndoRedoHistory
Layer: 1
Undoes
EndUndoes
Redoes
EndRedoes
EndUndoRedoHistory
Fore
SplineSet
256 -241 m 0
 209 -241 146 -229 97 -211 c 1
 106 -137 l 1
 150 -159 208 -174 250 -174 c 0
 348 -174 413 -113 413 -21 c 2
 413 65 l 1
 378 19 313 -11 247 -11 c 0
 130 -11 49 79 49 214 c 0
 49 393 160 512 322 512 c 0
 385 512 454 495 493 470 c 1
 493 -11 l 2
 493 -149 396 -241 256 -241 c 0
259 57 m 0
 351 57 413 127 413 221 c 2
 413 426 l 1
 393 436 357 443 321 443 c 0
 208 443 132 353 132 219 c 0
 132 122 183 57 259 57 c 0
208 567 m 1
 285 793 l 1
 346 793 l 1
 296 567 l 1
 208 567 l 1
EndSplineSet
EndChar

StartChar: germandbls
Encoding: 223 223 211
Width: 616
VWidth: 0
GlyphClass: 2
Flags: W
HStem: -11 64<317.061 455.88> 0 21G<89.9606 170> 660 63<226.624 365.528>
VStem: 90 80<0 598.953> 400 86<499.643 627.556> 500 77<97.1085 234.542>
LayerCount: 2
UndoRedoHistory
Layer: 0
Undoes
EndUndoes
Redoes
EndRedoes
EndUndoRedoHistory
UndoRedoHistory
Layer: 1
Undoes
EndUndoes
Redoes
EndRedoes
EndUndoRedoHistory
Fore
SplineSet
577 167 m 0x7c
 577 50 483 -11 391 -11 c 0
 321 -11 269 23 234 67 c 1
 266 119 l 1
 296 85 336 53 389 53 c 0xbc
 449 53 500 97 500 158 c 0
 500 283 376 301 286 348 c 0
 251 366 250 409 295 430 c 0
 366 463 400 519 400 568 c 0
 400 618 364 660 298 660 c 0
 205 660 168 585 168 492 c 2
 170 0 l 1
 90 0 l 1
 89 508 l 2
 89 647 170 723 299 723 c 0
 428 723 486 649 486 570 c 0
 486 501 441 428 359 400 c 0
 339 393 334 385 360 378 c 0
 481 343 577 294 577 167 c 0x7c
EndSplineSet
EndChar

StartChar: grave
Encoding: 96 96 212
Width: 307
VWidth: 0
GlyphClass: 2
Flags: W
HStem: 566 157
VStem: 41 225
LayerCount: 2
UndoRedoHistory
Layer: 0
Undoes
EndUndoes
Redoes
EndRedoes
EndUndoRedoHistory
UndoRedoHistory
Layer: 1
Undoes
EndUndoes
Redoes
EndRedoes
EndUndoRedoHistory
Fore
SplineSet
203 566 m 1
 41 723 l 1
 146 723 l 1
 266 566 l 1
 203 566 l 1
EndSplineSet
EndChar

StartChar: greater
Encoding: 62 62 214
Width: 568
VWidth: 0
GlyphClass: 2
Flags: W
LayerCount: 2
UndoRedoHistory
Layer: 0
Undoes
EndUndoes
Redoes
EndRedoes
EndUndoRedoHistory
UndoRedoHistory
Layer: 1
Undoes
EndUndoes
Redoes
EndRedoes
EndUndoRedoHistory
Fore
SplineSet
44 28 m 1
 44 104 l 1
 419 271 l 1
 47 452 l 1
 47 526 l 1
 527 290 l 1
 527 247 l 1
 44 28 l 1
EndSplineSet
EndChar

StartChar: greaterequal
Encoding: 8805 8805 215
Width: 653
VWidth: 0
GlyphClass: 2
Flags: W
HStem: 0 60<83 566>
LayerCount: 2
UndoRedoHistory
Layer: 0
Undoes
EndUndoes
Redoes
EndRedoes
EndUndoRedoHistory
UndoRedoHistory
Layer: 1
Undoes
EndUndoes
Redoes
EndRedoes
EndUndoRedoHistory
Fore
SplineSet
83 0 m 1
 83 60 l 1
 566 60 l 1
 566 0 l 1
 83 0 l 1
101 611 m 1
 557 380 l 1
 557 341 l 1
 99 122 l 1
 99 190 l 1
 470 360 l 1
 101 543 l 1
 101 611 l 1
EndSplineSet
EndChar

StartChar: guillemotleft
Encoding: 171 171 216
Width: 471
VWidth: 0
GlyphClass: 2
Flags: W
LayerCount: 2
UndoRedoHistory
Layer: 0
Undoes
EndUndoes
Redoes
EndRedoes
EndUndoRedoHistory
UndoRedoHistory
Layer: 1
Undoes
EndUndoes
Redoes
EndRedoes
EndUndoRedoHistory
Fore
SplineSet
173 84 m 1
 42 265 l 1
 176 447 l 1
 251 447 l 1
 125 265 l 1
 247 84 l 1
 173 84 l 1
349 84 m 1
 221 265 l 1
 351 447 l 1
 429 447 l 1
 300 265 l 1
 425 84 l 1
 349 84 l 1
EndSplineSet
EndChar

StartChar: guillemotright
Encoding: 187 187 217
Width: 483
VWidth: 0
GlyphClass: 2
Flags: W
LayerCount: 2
UndoRedoHistory
Layer: 0
Undoes
EndUndoes
Redoes
EndRedoes
EndUndoRedoHistory
UndoRedoHistory
Layer: 1
Undoes
EndUndoes
Redoes
EndRedoes
EndUndoRedoHistory
Fore
SplineSet
311 447 m 1
 442 266 l 1
 308 84 l 1
 234 84 l 1
 358 266 l 1
 238 447 l 1
 311 447 l 1
124 447 m 1
 251 266 l 1
 121 84 l 1
 43 84 l 1
 172 266 l 1
 46 447 l 1
 124 447 l 1
EndSplineSet
EndChar

StartChar: guilsinglleft
Encoding: 8249 8249 218
Width: 318
VWidth: 0
GlyphClass: 2
Flags: W
VStem: 56 212
LayerCount: 2
UndoRedoHistory
Layer: 0
Undoes
EndUndoes
Redoes
EndRedoes
EndUndoRedoHistory
UndoRedoHistory
Layer: 1
Undoes
EndUndoes
Redoes
EndRedoes
EndUndoRedoHistory
Fore
SplineSet
188 83 m 1
 56 264 l 1
 190 446 l 1
 268 446 l 1
 139 264 l 1
 264 83 l 1
 188 83 l 1
EndSplineSet
EndChar

StartChar: guilsinglright
Encoding: 8250 8250 219
Width: 318
VWidth: 0
GlyphClass: 2
Flags: W
VStem: 70 212
LayerCount: 2
UndoRedoHistory
Layer: 0
Undoes
EndUndoes
Redoes
EndRedoes
EndUndoRedoHistory
UndoRedoHistory
Layer: 1
Undoes
EndUndoes
Redoes
EndRedoes
EndUndoRedoHistory
Fore
SplineSet
149 446 m 1
 282 265 l 1
 146 83 l 1
 70 83 l 1
 198 265 l 1
 74 446 l 1
 149 446 l 1
EndSplineSet
EndChar

StartChar: h
Encoding: 104 104 220
Width: 600
VWidth: 0
GlyphClass: 2
Flags: W
HStem: -10 64<518.71 568> 0 21G<78 158> 712 20G<78 158>
VStem: 78 80<0 367.098 423 732> 421 80<71.1909 398.473>
AnchorPoint: "top" 360 615 basechar 0
AnchorPoint: "bottom" 315 0 basechar 0
LayerCount: 2
UndoRedoHistory
Layer: 0
Undoes
EndUndoes
Redoes
EndRedoes
EndUndoRedoHistory
UndoRedoHistory
Layer: 1
Undoes
EndUndoes
Redoes
EndRedoes
EndUndoRedoHistory
Fore
SplineSet
568 -10 m 1xb8
 562 -10 l 2xb8
 460 -10 421 37 421 144 c 2
 421 275 l 2
 421 395 392 441 320 447 c 0
 249 453 158 398 158 276 c 2
 158 0 l 1
 78 0 l 1x78
 78 732 l 1
 158 732 l 1
 158 423 l 1
 191 480 260 516 331 514 c 0
 438 510 501 443 501 278 c 2
 501 156 l 2
 501 84 517 54 567 54 c 2
 579 54 l 1
 568 -10 l 1xb8
EndSplineSet
EndChar

StartChar: hbar
Encoding: 295 295 221
Width: 602
VWidth: 0
GlyphClass: 2
Flags: W
HStem: -10 64<518.71 568> 0 21<78 158> 589 66<27 296> 712 20<78 158>
VStem: 78 80<0 367.098 423 732> 421 80<71.1909 398.473>
LayerCount: 2
UndoRedoHistory
Layer: 0
Undoes
EndUndoes
Redoes
EndRedoes
EndUndoRedoHistory
UndoRedoHistory
Layer: 1
Undoes
EndUndoes
Redoes
EndRedoes
EndUndoRedoHistory
Fore
SplineSet
27 589 m 1x3c
 27 655 l 1
 296 655 l 1
 296 589 l 1
 27 589 l 1x3c
EndSplineSet
Refer: 220 104 N 1 0 0 1 0 0 2
EndChar

StartChar: hungarumlaut
Encoding: 733 733 223
Width: 474
VWidth: 0
GlyphClass: 2
Flags: W
HStem: 558 153
VStem: 84 320
AnchorPoint: "top" 154 562 mark 0
LayerCount: 2
UndoRedoHistory
Layer: 0
Undoes
EndUndoes
Redoes
EndRedoes
EndUndoRedoHistory
UndoRedoHistory
Layer: 1
Undoes
EndUndoes
Redoes
EndRedoes
EndUndoRedoHistory
Fore
SplineSet
84 558 m 1
 190 711 l 1
 273 711 l 1
 142 558 l 1
 84 558 l 1
214 558 m 1
 318 711 l 1
 404 711 l 1
 270 558 l 1
 214 558 l 1
EndSplineSet
EndChar

StartChar: hyphen
Encoding: 45 45 224
Width: 585
VWidth: 0
GlyphClass: 2
Flags: W
HStem: 311 70<98 488>
LayerCount: 2
UndoRedoHistory
Layer: 0
Undoes
EndUndoes
Redoes
EndRedoes
EndUndoRedoHistory
UndoRedoHistory
Layer: 1
Undoes
EndUndoes
Redoes
EndRedoes
EndUndoRedoHistory
Fore
SplineSet
98 311 m 1
 98 381 l 1
 488 381 l 1
 488 311 l 1
 98 311 l 1
EndSplineSet
EndChar

StartChar: i
Encoding: 105 105 225
Width: 309
VWidth: 0
GlyphClass: 2
Flags: W
HStem: 481 20G<94 174> 604 108<92.0215 186.295>
VStem: 81 116<615.087 700.483> 94 80<68.1334 501>
AnchorPoint: "bottom" 121 0 basechar 0
LayerCount: 2
UndoRedoHistory
Layer: 0
Undoes
EndUndoes
Redoes
EndRedoes
EndUndoRedoHistory
UndoRedoHistory
Layer: 1
Undoes
EndUndoes
Redoes
EndRedoes
EndUndoRedoHistory
Fore
SplineSet
322 13 m 1xd0
 209 -33 94 -9 94 128 c 2
 94 501 l 1
 174 501 l 1
 174 130 l 2
 174 36 245 47 311 71 c 1
 322 13 l 1xd0
139 604 m 0
 110 604 81 622 81 658 c 0
 81 694 111 712 140 712 c 0
 169 712 197 693 197 657 c 0xe0
 197 621 168 604 139 604 c 0
EndSplineSet
EndChar

StartChar: infinity
Encoding: 8734 8734 233
Width: 821
VWidth: 0
GlyphClass: 2
Flags: W
HStem: 115 58<159.627 298.48 527.242 664.526> 405 56<157.681 293.854 527.529 666.066>
VStem: 52 63<218.052 362.334> 704 68<215.21 367.015>
LayerCount: 2
UndoRedoHistory
Layer: 0
Undoes
EndUndoes
Redoes
EndRedoes
EndUndoRedoHistory
UndoRedoHistory
Layer: 1
Undoes
EndUndoes
Redoes
EndRedoes
EndUndoRedoHistory
Fore
SplineSet
225 115 m 0
 114 115 52 203 52 299 c 0
 52 400 124 461 223 461 c 0
 319 461 367 402 414 338 c 1
 459 399 512 461 601 461 c 0
 709 461 772 388 772 291 c 0
 772 179 687 115 600 115 c 0
 531 115 475 156 413 238 c 1
 368 177 307 115 225 115 c 0
227 173 m 0
 306 173 343 235 380 288 c 1
 342 345 295 405 222 405 c 0
 151 405 115 350 115 289 c 0
 115 217 165 173 227 173 c 0
602 173 m 0
 673 173 704 228 704 302 c 0
 704 369 655 405 599 405 c 0
 521 405 480 343 445 289 c 1
 488 231 520 173 602 173 c 0
EndSplineSet
EndChar

StartChar: integral
Encoding: 8747 8747 234
Width: 387
VWidth: 0
GlyphClass: 2
Flags: W
HStem: -126 65<21.8441 131.263> 679 66<252.216 363.387>
VStem: 152 80<-40.9708 656.17>
LayerCount: 2
UndoRedoHistory
Layer: 0
Undoes
EndUndoes
Redoes
EndRedoes
EndUndoRedoHistory
UndoRedoHistory
Layer: 1
Undoes
EndUndoes
Redoes
EndRedoes
EndUndoRedoHistory
Fore
SplineSet
88 -126 m 0
 59 -126 44 -122 21 -116 c 1
 21 -53 l 1
 34 -58 56 -61 74 -61 c 0
 140 -61 152 -21 152 45 c 2
 152 562 l 2
 152 670 190 745 298 745 c 0
 325 745 343 740 364 735 c 1
 365 672 l 1
 352 677 330 679 312 679 c 0
 246 679 232 639 232 573 c 2
 232 57 l 2
 232 -51 196 -126 88 -126 c 0
EndSplineSet
EndChar

StartChar: j
Encoding: 106 106 237
Width: 272
VWidth: 0
GlyphClass: 2
Flags: W
HStem: -227 66<-18.4995 87.8279> 481 20G<105 186> 604 108<98.0215 193.295>
VStem: 87 117<615.412 700.483> 105 81<-143.96 501>
AnchorPoint: "top" 342 750 basechar 0
AnchorPoint: "bottom" 330 0 basechar 0
LayerCount: 2
UndoRedoHistory
Layer: 0
Undoes
EndUndoes
Redoes
EndRedoes
EndUndoRedoHistory
UndoRedoHistory
Layer: 1
Undoes
EndUndoes
Redoes
EndRedoes
EndUndoRedoHistory
Fore
SplineSet
146 604 m 0xf0
 117 604 87 622 87 658 c 0
 87 694 117 712 146 712 c 0
 175 712 204 693 204 657 c 0
 204 621 175 604 146 604 c 0xf0
49 -227 m 0
 21 -227 -8 -220 -24 -216 c 1
 -17 -152 l 1
 -17 -152 10 -161 38 -161 c 0
 92 -161 105 -131 105 -37 c 2
 105 501 l 1
 186 501 l 1
 186 -41 l 2xe8
 186 -176 147 -227 49 -227 c 0
EndSplineSet
EndChar

StartChar: k
Encoding: 107 107 239
Width: 511
VWidth: 0
GlyphClass: 2
Flags: W
HStem: 0 21G<84 164 386.311 514> 481 20G<363.043 483> 712 20G<84 164>
VStem: 84 80<0 225 271 732>
AnchorPoint: "top" 375 562 basechar 0
AnchorPoint: "bottom" 301 -0 basechar 0
LayerCount: 2
UndoRedoHistory
Layer: 0
Undoes
EndUndoes
Redoes
EndRedoes
EndUndoRedoHistory
UndoRedoHistory
Layer: 1
Undoes
EndUndoes
Redoes
EndRedoes
EndUndoRedoHistory
Fore
SplineSet
164 0 m 1
 84 0 l 1
 84 732 l 1
 164 732 l 1
 164 271 l 1
 382 501 l 1
 483 501 l 1
 243 250 l 1
 514 0 l 1
 408 0 l 1
 164 225 l 1
 164 0 l 1
EndSplineSet
EndChar

StartChar: k.alt
Encoding: 65539 -1 240
Width: 521
VWidth: 0
GlyphClass: 2
Flags: W
HStem: 0 21G<92 165.995 413.834 514> 481 20G<382.236 481> 725 20G<92 171>
VStem: 92 79<150 745>
LayerCount: 2
UndoRedoHistory
Layer: 0
Undoes
EndUndoes
Redoes
EndRedoes
EndUndoRedoHistory
UndoRedoHistory
Layer: 1
Undoes
EndUndoes
Redoes
EndRedoes
EndUndoRedoHistory
Fore
SplineSet
92 0 m 1
 92 745 l 1
 171 745 l 1
 171 150 l 1
 395 501 l 1
 481 501 l 1
 336 283 l 1
 514 0 l 1
 426 0 l 1
 294 217 l 1
 153 0 l 1
 92 0 l 1
EndSplineSet
EndChar

StartChar: k.alt.2
Encoding: 65540 -1 241
Width: 549
VWidth: 0
GlyphClass: 2
Flags: W
HStem: 481 20G<405.778 480> 725 20G<84 164>
VStem: 84 80<141 745>
LayerCount: 2
UndoRedoHistory
Layer: 0
Undoes
EndUndoes
Redoes
EndRedoes
EndUndoRedoHistory
UndoRedoHistory
Layer: 1
Undoes
EndUndoes
Redoes
EndRedoes
EndUndoRedoHistory
Fore
SplineSet
547 64 m 1
 541 -2 l 1
 458 -35 408 23 351 101 c 1
 284 190 l 1
 155 13 l 1
 128 -20 84 -12 84 29 c 2
 84 745 l 1
 164 745 l 1
 164 141 l 1
 420 501 l 1
 492 477 l 1
 328 250 l 1
 406 144 l 2
 446 90 485 29 547 64 c 1
EndSplineSet
EndChar

StartChar: kgreenlandic
Encoding: 312 312 243
Width: 522
VWidth: 0
GlyphClass: 2
Flags: W
HStem: 0 21G<92 172 391.13 519> 481 20G<92 172 371.873 500>
VStem: 92 80<0 230 272 501>
LayerCount: 2
UndoRedoHistory
Layer: 0
Undoes
EndUndoes
Redoes
EndRedoes
EndUndoRedoHistory
UndoRedoHistory
Layer: 1
Undoes
EndUndoes
Redoes
EndRedoes
EndUndoRedoHistory
Fore
SplineSet
92 0 m 1
 92 501 l 1
 172 501 l 1
 172 272 l 1
 391 501 l 1
 500 501 l 1
 248 250 l 1
 337 165 426 85 519 0 c 1
 412 0 l 1
 172 230 l 1
 172 0 l 1
 92 0 l 1
EndSplineSet
EndChar

StartChar: l
Encoding: 108 108 244
Width: 327
VWidth: 0
GlyphClass: 2
Flags: W
HStem: 11 59<178.664 311> 712 20G<88 168>
VStem: 88 80<73.7188 732>
AnchorPoint: "top" 130 720 basechar 0
AnchorPoint: "bottom" 129 0 basechar 0
LayerCount: 2
UndoRedoHistory
Layer: 0
Undoes
EndUndoes
Redoes
EndRedoes
EndUndoRedoHistory
UndoRedoHistory
Layer: 1
Undoes
EndUndoes
Redoes
EndRedoes
EndUndoRedoHistory
Fore
SplineSet
311 70 m 1
 321 11 l 1
 133 -50 88 54 88 137 c 2
 88 732 l 1
 168 732 l 1
 168 134 l 2
 168 85 182 33 311 70 c 1
EndSplineSet
EndChar

StartChar: less
Encoding: 60 60 249
Width: 566
VWidth: 0
GlyphClass: 2
Flags: W
LayerCount: 2
UndoRedoHistory
Layer: 0
Undoes
EndUndoes
Redoes
EndRedoes
EndUndoRedoHistory
UndoRedoHistory
Layer: 1
Undoes
EndUndoes
Redoes
EndRedoes
EndUndoRedoHistory
Fore
SplineSet
521 23 m 1
 42 248 l 1
 42 291 l 1
 523 521 l 1
 523 446 l 1
 148 270 l 1
 521 98 l 1
 521 23 l 1
EndSplineSet
EndChar

StartChar: lessequal
Encoding: 8804 8804 250
Width: 654
VWidth: 0
GlyphClass: 2
Flags: W
HStem: 0 60<83 568>
LayerCount: 2
UndoRedoHistory
Layer: 0
Undoes
EndUndoes
Redoes
EndRedoes
EndUndoRedoHistory
UndoRedoHistory
Layer: 1
Undoes
EndUndoes
Redoes
EndRedoes
EndUndoRedoHistory
Fore
SplineSet
554 121 m 1
 101 340 l 1
 101 380 l 1
 554 610 l 1
 554 542 l 1
 187 362 l 1
 554 189 l 1
 554 121 l 1
83 0 m 1
 83 60 l 1
 568 60 l 1
 568 0 l 1
 83 0 l 1
EndSplineSet
EndChar

StartChar: logicalnot
Encoding: 172 172 251
Width: 691
VWidth: 0
GlyphClass: 2
Flags: W
HStem: 322 68<96 521>
VStem: 521 74<116 322>
LayerCount: 2
UndoRedoHistory
Layer: 0
Undoes
EndUndoes
Redoes
EndRedoes
EndUndoRedoHistory
UndoRedoHistory
Layer: 1
Undoes
EndUndoes
Redoes
EndRedoes
EndUndoRedoHistory
Fore
SplineSet
521 116 m 1
 521 322 l 1
 96 322 l 1
 96 390 l 1
 595 390 l 1
 595 116 l 1
 521 116 l 1
EndSplineSet
EndChar

StartChar: lozenge
Encoding: 9674 9674 252
Width: 584
VWidth: 0
GlyphClass: 2
Flags: W
HStem: 0 21G<252.657 326.686> 691 20G<256.812 330.078>
LayerCount: 2
UndoRedoHistory
Layer: 0
Undoes
EndUndoes
Redoes
EndRedoes
EndUndoRedoHistory
UndoRedoHistory
Layer: 1
Undoes
EndUndoes
Redoes
EndRedoes
EndUndoRedoHistory
Fore
SplineSet
290 70 m 1
 462 350 l 1
 294 640 l 1
 122 351 l 1
 290 70 l 1
265 0 m 1
 49 350 l 1
 269 711 l 1
 318 711 l 1
 536 350 l 1
 314 0 l 1
 265 0 l 1
EndSplineSet
EndChar

StartChar: lslash
Encoding: 322 322 253
Width: 250
VWidth: 0
GlyphClass: 2
Flags: W
HStem: 0 21G<87 167> 481 20G<216.714 251> 709 20G<87 167>
VStem: 87 80<0 336 452 729>
LayerCount: 2
UndoRedoHistory
Layer: 0
Undoes
EndUndoes
Redoes
EndRedoes
EndUndoRedoHistory
UndoRedoHistory
Layer: 1
Undoes
EndUndoes
Redoes
EndRedoes
EndUndoRedoHistory
Fore
SplineSet
87 0 m 1
 87 336 l 1
 5 288 l 1
 5 354 l 1
 87 403 l 1
 87 729 l 1
 167 729 l 1
 167 452 l 1
 251 501 l 1
 251 435 l 1
 167 385 l 1
 167 0 l 1
 87 0 l 1
EndSplineSet
EndChar

StartChar: m
Encoding: 109 109 254
Width: 939
VWidth: 0
GlyphClass: 2
Flags: W
HStem: -7 66<850.639 906> 0 21G<97 177 430 510> 447 67<251.549 388.189 583.83 719.049> 481 20G<71.5 117.5>
VStem: 97 80<0 365.16> 430 80<0 366.45> 757 80<71.4428 403.853>
AnchorPoint: "top" 465 500 basechar 0
AnchorPoint: "bottom" 462 0 basechar 0
LayerCount: 2
UndoRedoHistory
Layer: 0
Undoes
EndUndoes
Redoes
EndRedoes
EndUndoRedoHistory
UndoRedoHistory
Layer: 1
Undoes
EndUndoes
Redoes
EndRedoes
EndUndoRedoHistory
Fore
SplineSet
906 -7 m 1xae
 894 -7 l 2xae
 791 -7 757 47 757 158 c 2
 757 283 l 2
 757 403 728 447 655 447 c 0
 584 447 510 392 510 262 c 2
 510 0 l 1
 430 0 l 1
 430 276 l 2
 430 393 398 447 326 447 c 0x6e
 243 447 177 383 177 258 c 2
 177 0 l 1
 97 0 l 1
 97 332 l 2
 97 397 63 438 37 461 c 1
 106 501 l 1x5e
 129 483 161 442 164 406 c 1
 200 472 256 514 343 514 c 0
 424 514 468 461 487 404 c 1
 525 472 591 514 668 514 c 0
 774 514 837 447 837 282 c 2
 837 172 l 2
 837 88 844 59 904 59 c 2
 919 59 l 1
 906 -7 l 1xae
EndSplineSet
EndChar

StartChar: macron
Encoding: 175 175 255
Width: 474
VWidth: 0
GlyphClass: 2
Flags: W
HStem: 646 65<98 377>
VStem: 98 279<646 711>
AnchorPoint: "top" 236 562 mark 0
LayerCount: 2
UndoRedoHistory
Layer: 0
Undoes
EndUndoes
Redoes
EndRedoes
EndUndoRedoHistory
UndoRedoHistory
Layer: 1
Undoes
EndUndoes
Redoes
EndRedoes
EndUndoRedoHistory
Fore
SplineSet
98 646 m 1
 98 711 l 1
 377 711 l 1
 377 646 l 1
 98 646 l 1
EndSplineSet
EndChar

StartChar: minus
Encoding: 8722 8722 256
Width: 705
VWidth: 0
GlyphClass: 2
Flags: W
HStem: 242 67<102 603>
LayerCount: 2
UndoRedoHistory
Layer: 0
Undoes
EndUndoes
Redoes
EndRedoes
EndUndoRedoHistory
UndoRedoHistory
Layer: 1
Undoes
EndUndoes
Redoes
EndRedoes
EndUndoRedoHistory
Fore
SplineSet
102 242 m 1
 102 309 l 1
 603 309 l 1
 603 242 l 1
 102 242 l 1
EndSplineSet
EndChar

StartChar: multiply
Encoding: 215 215 257
Width: 654
VWidth: 0
GlyphClass: 2
Flags: W
LayerCount: 2
UndoRedoHistory
Layer: 0
Undoes
EndUndoes
Redoes
EndRedoes
EndUndoRedoHistory
UndoRedoHistory
Layer: 1
Undoes
EndUndoes
Redoes
EndRedoes
EndUndoRedoHistory
Fore
SplineSet
185 75 m 1
 135 125 l 1
 278 271 l 1
 135 416 l 1
 185 466 l 1
 327 321 l 1
 469 466 l 1
 520 415 l 1
 375 271 l 1
 520 126 l 1
 469 75 l 1
 327 220 l 1
 185 75 l 1
EndSplineSet
EndChar

StartChar: n
Encoding: 110 110 258
Width: 616
VWidth: 0
GlyphClass: 2
Flags: W
HStem: -7 66<528.147 583> 0 21G<97 177> 447 67<252.411 392.652>
VStem: 97 80<0 363.883> 435 80<72.7172 395.732>
AnchorPoint: "top" 342 750 basechar 0
AnchorPoint: "bottom" 330 0 basechar 0
LayerCount: 2
UndoRedoHistory
Layer: 0
Undoes
EndUndoes
Redoes
EndRedoes
EndUndoRedoHistory
UndoRedoHistory
Layer: 1
Undoes
EndUndoes
Redoes
EndRedoes
EndUndoRedoHistory
Fore
SplineSet
596 59 m 1xb8
 583 -7 l 1
 569 -7 l 2xb8
 461 -7 435 55 435 165 c 2
 435 283 l 2
 435 403 397 447 326 447 c 0
 254 447 177 391 177 255 c 2
 177 0 l 1
 97 0 l 1x78
 97 333 l 2
 97 398 60 439 37 459 c 1
 106 500 l 1
 131 478 154 445 159 407 c 1
 194 469 254 514 342 514 c 0
 438 514 515 448 515 287 c 2
 515 152 l 2
 515 89 526 59 577 59 c 2
 596 59 l 1xb8
EndSplineSet
EndChar

StartChar: nine
Encoding: 57 57 262
Width: 642
VWidth: 0
GlyphClass: 2
Flags: W
HStem: 0 21G<402 483> 304 66<207.605 325.662> 653 70<245.05 398.001>
VStem: 86 84<409.181 572.624> 402 81<0 375 463.881 645.449>
LayerCount: 2
UndoRedoHistory
Layer: 0
Undoes
EndUndoes
Redoes
EndRedoes
EndUndoRedoHistory
UndoRedoHistory
Layer: 1
Undoes
EndUndoes
Redoes
EndRedoes
EndUndoRedoHistory
Fore
SplineSet
483 649 m 1
 483 608 l 1
 483 0 l 1
 402 0 l 1
 402 375 l 1
 359 326 304 304 253 304 c 0
 165 304 86 372 86 480 c 0
 86 596 164 723 316 723 c 0
 391 723 445 703 483 675 c 1
 483 649 l 1
399 638 m 1
 392 642 366 653 325 653 c 0
 220 653 170 565 170 484 c 0
 170 416 209 370 264 370 c 0
 326 370 399 433 399 573 c 2
 399 638 l 1
EndSplineSet
EndChar

StartChar: nine.alt
Encoding: 65541 -1 263
Width: 574
VWidth: 0
GlyphClass: 2
Flags: W
HStem: -12 70<163.391 333.359> 274 68<195.338 367.736> 654 69<201.567 361.527>
VStem: 48 86<406.119 583.115> 442 85<220.475 552.154>
LayerCount: 2
UndoRedoHistory
Layer: 0
Undoes
EndUndoes
Redoes
EndRedoes
EndUndoRedoHistory
UndoRedoHistory
Layer: 1
Undoes
EndUndoes
Redoes
EndRedoes
EndUndoRedoHistory
Fore
SplineSet
252 -12 m 0
 181 -12 136 10 94 51 c 1
 121 113 l 1
 156 75 200 58 254 58 c 0
 391 58 442 200 442 347 c 2
 442 359 l 1
 408 303 351 274 267 274 c 0
 129 274 48 368 48 494 c 0
 48 643 152 723 284 723 c 0
 464 723 527 582 527 384 c 0
 527 164 432 -12 252 -12 c 0
279 342 m 0
 375 342 436 403 436 488 c 0
 436 592 371 654 280 654 c 0
 185 654 134 583 134 497 c 0
 134 401 186 342 279 342 c 0
EndSplineSet
EndChar

StartChar: nine.alt.2
Encoding: 65542 -1 264
Width: 607
VWidth: 0
GlyphClass: 2
Flags: W
HStem: 251 71<222.757 381.041> 650 73<226.148 407.378>
VStem: 69 84<393.428 576.244> 474 82<392.341 580.139>
LayerCount: 2
UndoRedoHistory
Layer: 0
Undoes
EndUndoes
Redoes
EndRedoes
EndUndoRedoHistory
UndoRedoHistory
Layer: 1
Undoes
EndUndoes
Redoes
EndRedoes
EndUndoRedoHistory
Fore
SplineSet
266 -37 m 1
 203 0 l 1
 395 281 l 1
 391 278 356 251 304 251 c 0
 158 251 69 354 69 486 c 0
 69 626 174 723 310 723 c 0
 478 723 556 607 556 484 c 0
 556 422 532 356 488 292 c 1
 266 -37 l 1
313 322 m 0
 420 322 474 386 474 484 c 0
 474 587 425 650 315 650 c 0
 215 650 153 588 153 485 c 0
 153 401 194 322 313 322 c 0
EndSplineSet
EndChar

StartChar: notequal
Encoding: 8800 8800 265
Width: 653
VWidth: 0
GlyphClass: 2
Flags: W
HStem: 159 58<83 230 320 567> 355 60<83 327 417 566>
LayerCount: 2
UndoRedoHistory
Layer: 0
Undoes
EndUndoes
Redoes
EndRedoes
EndUndoRedoHistory
UndoRedoHistory
Layer: 1
Undoes
EndUndoes
Redoes
EndRedoes
EndUndoRedoHistory
Fore
SplineSet
227 22 m 1
 168 31 l 1
 230 159 l 1
 83 159 l 1
 83 217 l 1
 258 217 l 1
 327 355 l 1
 83 355 l 1
 83 415 l 1
 354 415 l 1
 418 548 l 1
 478 540 l 1
 417 415 l 1
 566 415 l 1
 567 355 l 1
 390 355 l 1
 320 217 l 1
 567 217 l 1
 567 159 l 1
 292 159 l 1
 227 22 l 1
EndSplineSet
EndChar

StartChar: numbersign
Encoding: 35 35 267
Width: 677
VWidth: 0
GlyphClass: 2
Flags: W
HStem: 0 21G<149 217.348 347 413.436> 227 58<71 190 261 385 458 574> 439 62<105 225 299 420 494 605>
LayerCount: 2
UndoRedoHistory
Layer: 0
Undoes
EndUndoes
Redoes
EndRedoes
EndUndoRedoHistory
UndoRedoHistory
Layer: 1
Undoes
EndUndoes
Redoes
EndRedoes
EndUndoRedoHistory
Fore
SplineSet
149 0 m 1
 190 227 l 1
 67 227 l 1
 71 285 l 1
 200 285 l 1
 225 439 l 1
 99 439 l 1
 105 501 l 1
 235 501 l 1
 272 710 l 1
 335 710 l 1
 299 501 l 1
 432 501 l 1
 467 710 l 1
 532 710 l 1
 494 501 l 1
 612 501 l 1
 605 439 l 1
 483 439 l 1
 458 285 l 1
 580 285 l 1
 574 227 l 1
 449 227 l 1
 410 0 l 1
 347 0 l 1
 385 227 l 1
 252 227 l 1
 214 0 l 1
 149 0 l 1
261 285 m 1
 395 285 l 1
 420 439 l 1
 288 439 l 1
 261 285 l 1
EndSplineSet
EndChar

StartChar: o
Encoding: 111 111 268
Width: 593
VWidth: 0
GlyphClass: 2
Flags: W
HStem: -11 67<221.029 375.508> 447 67<221.029 375.508>
VStem: 55 83<147.441 353.827> 456 83<147.599 357.224>
AnchorPoint: "top" 302 562 basechar 0
AnchorPoint: "bottom" 403 0 basechar 0
AnchorPoint: "ogonek" 354 0 basechar 0
LayerCount: 2
UndoRedoHistory
Layer: 0
Undoes
EndUndoes
Redoes
EndRedoes
EndUndoRedoHistory
UndoRedoHistory
Layer: 1
Undoes
EndUndoes
Redoes
EndRedoes
EndUndoRedoHistory
Fore
SplineSet
299 56 m 0
 394 56 456 135 456 251 c 0
 456 369 394 447 299 447 c 0
 202 447 138 368 138 250 c 0
 138 134 202 56 299 56 c 0
299 -11 m 0
 156 -11 55 94 55 250 c 0
 55 407 156 514 299 514 c 0
 440 514 539 407 539 250 c 0
 539 93 440 -11 299 -11 c 0
EndSplineSet
EndChar

StartChar: oe
Encoding: 339 339 273
Width: 929
VWidth: 0
GlyphClass: 2
Flags: W
HStem: -11 67<221.029 377.565 620.64 801.404> 217 59<541 715.656> 447 67<221.029 376.272 621.767 765.494>
VStem: 55 83<147.441 353.827> 456 85<146.197 217 276 356.964> 789 79<323.905 423.713>
LayerCount: 2
UndoRedoHistory
Layer: 0
Undoes
EndUndoes
Redoes
EndRedoes
EndUndoRedoHistory
UndoRedoHistory
Layer: 1
Undoes
EndUndoes
Redoes
EndRedoes
EndUndoRedoHistory
Fore
SplineSet
700 -11 m 0
 617 -11 541 30 497 108 c 1
 455 32 384 -11 299 -11 c 0
 156 -11 55 94 55 250 c 0
 55 407 156 514 299 514 c 0
 385 514 457 468 499 391 c 1
 540 466 608 514 700 514 c 0
 801 514 868 451 868 369 c 0
 868 249 703 217 541 217 c 1
 553 113 615 56 705 56 c 0
 779 56 823 87 855 113 c 1
 888 60 l 1
 829 13 776 -11 700 -11 c 0
540 276 m 1
 654 276 789 291 789 370 c 0
 789 416 757 447 701 447 c 0
 620 447 547 387 540 276 c 1
299 56 m 0
 394 56 456 135 456 251 c 0
 456 369 394 447 299 447 c 0
 202 447 138 368 138 250 c 0
 138 134 202 56 299 56 c 0
EndSplineSet
EndChar

StartChar: ogonek
Encoding: 731 731 274
Width: 252
VWidth: 0
GlyphClass: 2
Flags: W
HStem: -190 53<102.329 219.965>
VStem: 28 69<-129.686 -53.9136>
AnchorPoint: "ogonek" 150 0 mark 0
LayerCount: 2
UndoRedoHistory
Layer: 0
Undoes
EndUndoes
Redoes
EndRedoes
EndUndoRedoHistory
UndoRedoHistory
Layer: 1
Undoes
EndUndoes
Redoes
EndRedoes
EndUndoRedoHistory
Fore
SplineSet
135 -190 m 0
 74 -190 28 -164 28 -110 c 0
 28 -48 85 -17 133 6 c 1
 196 0 l 1
 154 -25 97 -57 97 -97 c 0
 97 -122 121 -137 146 -137 c 0
 177 -137 199 -131 221 -122 c 1
 221 -176 l 1
 199 -185 166 -190 135 -190 c 0
EndSplineSet
EndChar

StartChar: one
Encoding: 49 49 278
Width: 642
VWidth: 0
GlyphClass: 2
Flags: W
HStem: 0 21G<279 363> 691 20G<279 363>
VStem: 279 84<0 711>
LayerCount: 2
UndoRedoHistory
Layer: 0
Undoes
EndUndoes
Redoes
EndRedoes
EndUndoRedoHistory
UndoRedoHistory
Layer: 1
Undoes
EndUndoes
Redoes
EndRedoes
EndUndoRedoHistory
Fore
SplineSet
363 0 m 1
 279 0 l 1
 279 711 l 1
 363 711 l 1
 363 0 l 1
EndSplineSet
EndChar

StartChar: one.alt
Encoding: 65543 -1 279
Width: 614
VWidth: 0
GlyphClass: 2
Flags: W
HStem: 0 21G<326 410> 691 20G<313.5 410>
VStem: 326 84<0 629>
LayerCount: 2
UndoRedoHistory
Layer: 0
Undoes
EndUndoes
Redoes
EndRedoes
EndUndoRedoHistory
UndoRedoHistory
Layer: 1
Undoes
EndUndoes
Redoes
EndRedoes
EndUndoRedoHistory
Fore
SplineSet
326 0 m 1
 326 629 l 1
 294 605 252 581 200 560 c 1
 180 624 l 1
 237 650 297 686 330 711 c 1
 410 711 l 1
 410 0 l 1
 326 0 l 1
EndSplineSet
EndChar

StartChar: onehalf
Encoding: 189 189 280
Width: 951
VWidth: 0
GlyphClass: 2
Flags: W
HStem: 0 58<686 876> 452 62<655.362 789.783> 660 51<61 102>
VStem: 61 110<660 711> 102 69<208 660> 812 74<289.711 429.202>
LayerCount: 2
UndoRedoHistory
Layer: 0
Undoes
EndUndoes
Redoes
EndRedoes
EndUndoRedoHistory
UndoRedoHistory
Layer: 1
Undoes
EndUndoes
Redoes
EndRedoes
EndUndoRedoHistory
Fore
SplineSet
166 0 m 1xe4
 572 711 l 1
 645 711 l 1
 239 0 l 1
 166 0 l 1xe4
102 208 m 1xec
 102 660 l 1xec
 61 660 l 1
 61 711 l 1
 171 711 l 1xf4
 171 208 l 1
 102 208 l 1xec
736 514 m 0
 824 514 884 454 886 365 c 0
 888 292 840 239 779 168 c 2
 686 58 l 1
 876 58 l 1
 876 0 l 1
 604 0 l 1
 604 62 l 1
 739 220 l 2
 791 282 814 318 812 367 c 0
 810 420 785 452 734 452 c 0
 666 452 623 407 623 407 c 2
 594 464 l 1
 594 464 643 514 736 514 c 0
EndSplineSet
Ligature2: "fracDiagonalFractionslookup0 subtable" one fraction two
Ligature2: "fracDiagonalFractionslookup0 subtable" one slash two
EndChar

StartChar: onequarter
Encoding: 188 188 281
Width: 884
VWidth: 0
GlyphClass: 2
Flags: W
HStem: 0 21G<140 224.421 687 751> 129 48<551 687 751 843> 481 20G<637.268 715> 660 51<41 83>
VStem: 41 110<660 711> 83 68<208 660> 687 64<0 129 177 301>
LayerCount: 2
UndoRedoHistory
Layer: 0
Undoes
EndUndoes
Redoes
EndRedoes
EndUndoRedoHistory
UndoRedoHistory
Layer: 1
Undoes
EndUndoes
Redoes
EndRedoes
EndUndoRedoHistory
Fore
SplineSet
140 0 m 1xf2
 546 711 l 1
 619 711 l 1
 213 0 l 1
 140 0 l 1xf2
83 208 m 1xf6
 83 660 l 1xf6
 41 660 l 1
 41 711 l 1
 151 711 l 1xfa
 151 208 l 1
 83 208 l 1xf6
750 301 m 1
 750 177 l 1
 843 177 l 1
 843 129 l 1
 751 129 l 1
 751 0 l 1
 687 0 l 1
 687 129 l 1
 472 129 l 1
 472 173 l 1
 648 501 l 1
 715 501 l 1
 551 177 l 1
 687 177 l 1
 687 301 l 1
 750 301 l 1
EndSplineSet
Ligature2: "fracDiagonalFractionslookup0 subtable" one fraction four
Ligature2: "fracDiagonalFractionslookup0 subtable" one slash four
EndChar

StartChar: ordmasculine
Encoding: 186 186 283
Width: 534
VWidth: 0
GlyphClass: 2
Flags: W
HStem: 376 53<202.885 331.556> 670 53<202.167 331.141>
VStem: 93 69<470.523 626.294> 374 67<471.046 626.186>
LayerCount: 2
UndoRedoHistory
Layer: 0
Undoes
EndUndoes
Redoes
EndRedoes
EndUndoRedoHistory
UndoRedoHistory
Layer: 1
Undoes
EndUndoes
Redoes
EndRedoes
EndUndoRedoHistory
Fore
SplineSet
268 376 m 0
 161 376 93 442 93 551 c 0
 93 663 167 723 268 723 c 0
 379 723 441 647 441 549 c 0
 441 437 370 376 268 376 c 0
268 429 m 0
 335 429 374 480 374 548 c 0
 374 619 335 670 267 670 c 0
 200 670 162 619 162 550 c 0
 162 479 199 429 268 429 c 0
EndSplineSet
EndChar

StartChar: oslash
Encoding: 248 248 284
Width: 593
VWidth: 0
GlyphClass: 2
Flags: W
HStem: -11 67<221.029 375.508> 447 67<221.029 375.508>
VStem: 55 83<147.441 353.827> 456 83<147.599 357.224>
LayerCount: 2
UndoRedoHistory
Layer: 0
Undoes
EndUndoes
Redoes
EndRedoes
EndUndoRedoHistory
UndoRedoHistory
Layer: 1
Undoes
EndUndoes
Redoes
EndRedoes
EndUndoRedoHistory
Fore
SplineSet
172 -127 m 1
 125 -112 l 1
 424 624 l 1
 473 608 l 1
 172 -127 l 1
EndSplineSet
Refer: 268 111 N 1 0 0 1 0 0 2
EndChar

StartChar: p
Encoding: 112 112 286
Width: 592
VWidth: 0
GlyphClass: 2
Flags: W
HStem: -248 21G<95 175> -11 67<182.494 370.819> 447 67<249.398 390.632> 481 20G<69.5 113.5>
VStem: 95 80<-248 12 72.3801 359.538> 455 83<149.544 373.732>
AnchorPoint: "top" 386 750 basechar 0
AnchorPoint: "bottom" 403 0 basechar 0
LayerCount: 2
UndoRedoHistory
Layer: 0
Undoes
EndUndoes
Redoes
EndRedoes
EndUndoRedoHistory
UndoRedoHistory
Layer: 1
Undoes
EndUndoes
Redoes
EndRedoes
EndUndoRedoHistory
Fore
SplineSet
95 -248 m 1xec
 95 315 l 2
 95 396 59 442 35 461 c 1
 104 501 l 1xdc
 123 487 150 451 157 405 c 1
 202 483 273 514 335 514 c 0
 460 514 538 416 538 265 c 0
 538 91 439 -11 297 -11 c 0
 259 -11 218 -3 175 12 c 1
 175 -248 l 1
 95 -248 l 1xec
175 81 m 1
 212 64 250 56 285 56 c 0
 379 56 455 117 455 264 c 0
 455 383 405 447 318 447 c 0xec
 247 447 175 386 175 248 c 2
 175 81 l 1
EndSplineSet
EndChar

StartChar: paragraph
Encoding: 182 182 287
Width: 561
VWidth: 0
GlyphClass: 2
Flags: W
HStem: 0 21G<229 296 394 457> 650 60<301.385 394 457 500>
VStem: 67 229<469.394 632.797> 229 67<0 405> 394 63<0 650>
LayerCount: 2
UndoRedoHistory
Layer: 0
Undoes
EndUndoes
Redoes
EndRedoes
EndUndoRedoHistory
UndoRedoHistory
Layer: 1
Undoes
EndUndoes
Redoes
EndRedoes
EndUndoRedoHistory
Fore
SplineSet
229 0 m 1xd8
 229 405 l 1xd8
 124 405 67 462 67 554 c 0xe8
 67 683 189 710 313 710 c 2
 500 710 l 1
 500 650 l 1
 457 650 l 1
 457 0 l 1
 394 0 l 1
 394 650 l 1
 296 650 l 1
 296 0 l 1
 229 0 l 1xd8
EndSplineSet
EndChar

StartChar: parenleft
Encoding: 40 40 288
Width: 292
VWidth: 0
GlyphClass: 2
Flags: W
LayerCount: 2
UndoRedoHistory
Layer: 0
Undoes
EndUndoes
Redoes
EndRedoes
EndUndoRedoHistory
UndoRedoHistory
Layer: 1
Undoes
EndUndoes
Redoes
EndRedoes
EndUndoRedoHistory
Fore
SplineSet
181 -104 m 1
 5 174 -1 466 184 757 c 1
 256 757 l 1
 83 485 90 157 254 -104 c 1
 181 -104 l 1
EndSplineSet
EndChar

StartChar: parenright
Encoding: 41 41 289
Width: 292
VWidth: 0
GlyphClass: 2
Flags: W
LayerCount: 2
UndoRedoHistory
Layer: 0
Undoes
EndUndoes
Redoes
EndRedoes
EndUndoRedoHistory
UndoRedoHistory
Layer: 1
Undoes
EndUndoes
Redoes
EndRedoes
EndUndoRedoHistory
Fore
SplineSet
40 -104 m 1
 204 157 211 485 38 757 c 1
 109 757 l 1
 294 466 288 174 112 -104 c 1
 40 -104 l 1
EndSplineSet
EndChar

StartChar: partialdiff
Encoding: 8706 8706 290
Width: 562
VWidth: 0
GlyphClass: 2
Flags: W
HStem: -11 66<178.846 315.623> 427 65<214.837 365.269> 657 66<187.129 359.021>
VStem: 45 83<111.718 324.804> 435 83<411 567.84>
LayerCount: 2
UndoRedoHistory
Layer: 0
Undoes
EndUndoes
Redoes
EndRedoes
EndUndoRedoHistory
UndoRedoHistory
Layer: 1
Undoes
EndUndoes
Redoes
EndRedoes
EndUndoRedoHistory
Fore
SplineSet
240 -11 m 0
 109 -11 45 87 45 208 c 0
 45 379 158 492 285 492 c 0
 355 492 400 455 434 411 c 1
 434 421 435 437 435 447 c 0
 435 582 381 657 274 657 c 0
 221 657 179 634 146 611 c 1
 141 678 l 1
 176 702 229 723 286 723 c 0
 460 723 518 582 518 418 c 0
 518 182 427 -11 240 -11 c 0
242 55 m 0
 369 55 411 190 426 322 c 1
 405 380 361 427 295 427 c 0
 183 427 128 328 128 206 c 0
 128 117 171 55 242 55 c 0
EndSplineSet
EndChar

StartChar: percent
Encoding: 37 37 291
Width: 873
VWidth: 0
GlyphClass: 2
Flags: W
HStem: -12 55<600.651 719.646> 0 21G<179 266.293> 305 55<604.559 722.979> 351 55<150.651 271.799> 667 56<152.554 273.137> 691 20G<605.651 691>
VStem: 43 70<447.194 622.821> 311 70<450.692 625.352> 493 70<84.5784 260.451> 760 71<86.784 263.981>
LayerCount: 2
UndoRedoHistory
Layer: 0
Undoes
EndUndoes
Redoes
EndRedoes
EndUndoRedoHistory
UndoRedoHistory
Layer: 1
Undoes
EndUndoes
Redoes
EndRedoes
EndUndoRedoHistory
Fore
SplineSet
179 0 m 1x47c0
 618 711 l 1
 691 711 l 1
 254 0 l 1
 179 0 l 1x47c0
661 -12 m 0xa3c0
 550 -12 493 73 493 173 c 0
 493 290 563 360 663 360 c 0
 770 360 831 285 831 175 c 0
 831 59 761 -12 661 -12 c 0xa3c0
212 406 m 0x1bc0
 281 406 311 467 311 538 c 0
 311 610 281 667 213 667 c 0
 144 667 113 607 113 535 c 0
 113 459 145 406 212 406 c 0x1bc0
662 43 m 0xa3c0
 731 43 760 105 760 176 c 0
 760 248 731 305 663 305 c 0
 594 305 563 244 563 172 c 0
 563 96 595 43 662 43 c 0xa3c0
211 351 m 0x1bc0
 100 351 43 435 43 535 c 0
 43 652 113 723 213 723 c 0
 320 723 381 648 381 538 c 0
 381 422 311 351 211 351 c 0x1bc0
EndSplineSet
EndChar

StartChar: period
Encoding: 46 46 292
Width: 294
VWidth: 0
GlyphClass: 2
Flags: W
HStem: -8 103<104.461 190.539>
VStem: 95 105<1.79424 85.2058>
LayerCount: 2
UndoRedoHistory
Layer: 0
Undoes
EndUndoes
Redoes
EndRedoes
EndUndoRedoHistory
UndoRedoHistory
Layer: 1
Undoes
EndUndoes
Redoes
EndRedoes
EndUndoRedoHistory
Fore
SplineSet
147 -8 m 0
 113 -8 95 16 95 44 c 0
 95 76 122 95 148 95 c 0
 182 95 200 71 200 43 c 0
 200 11 173 -8 147 -8 c 0
EndSplineSet
EndChar

StartChar: periodcentered
Encoding: 183 183 293
Width: 301
VWidth: 0
GlyphClass: 2
Flags: W
HStem: 411 143<99.8215 201.132>
VStem: 82 138<429.396 535.175>
LayerCount: 2
UndoRedoHistory
Layer: 0
Undoes
EndUndoes
Redoes
EndRedoes
EndUndoRedoHistory
UndoRedoHistory
Layer: 1
Undoes
EndUndoes
Redoes
EndRedoes
EndUndoRedoHistory
Fore
SplineSet
150 554 m 0
 196 554 220 518 220 482 c 0
 220 446 196 411 150 411 c 0
 104 411 82 447 82 483 c 0
 82 519 104 554 150 554 c 0
EndSplineSet
EndChar

StartChar: perthousand
Encoding: 8240 8240 294
Width: 1253
VWidth: 0
GlyphClass: 2
Flags: W
HStem: -12 55<600.651 719.646 992.255 1111.15> 0 21<179 266.293> 305 55<604.559 722.979 992.14 1112.58> 351 55<150.651 271.799> 667 56<152.554 273.137> 691 20<605.651 691>
VStem: 43 70<447.194 622.821> 311 70<450.692 625.352> 493 70<84.5784 260.451> 760 71<86.784 263.981> 882 71<84.5784 260.451> 1150 70<86.784 262.852>
LayerCount: 2
UndoRedoHistory
Layer: 0
Undoes
EndUndoes
Redoes
EndRedoes
EndUndoRedoHistory
UndoRedoHistory
Layer: 1
Undoes
EndUndoes
Redoes
EndRedoes
EndUndoRedoHistory
Fore
SplineSet
1052 43 m 0xa3f0
 1121 43 1150 105 1150 176 c 0
 1150 248 1120 305 1052 305 c 0
 983 305 953 244 953 172 c 0
 953 96 985 43 1052 43 c 0xa3f0
1050 -12 m 0
 939 -12 882 73 882 173 c 0
 882 290 953 360 1053 360 c 0
 1160 360 1220 285 1220 175 c 0
 1220 59 1150 -12 1050 -12 c 0
EndSplineSet
Refer: 291 37 N 1 0 0 1 0 0 2
EndChar

StartChar: pi
Encoding: 960 960 295
Width: 624
VWidth: 0
GlyphClass: 2
Flags: W
HStem: -11 60<497.698 576.625> 0 21G<83 193.5> 436 65<97.2872 183 257 411 489 588>
VStem: 183 74<244.404 436> 411 78<55.9013 436>
LayerCount: 2
UndoRedoHistory
Layer: 0
Undoes
EndUndoes
Redoes
EndRedoes
EndUndoRedoHistory
UndoRedoHistory
Layer: 1
Undoes
EndUndoes
Redoes
EndRedoes
EndUndoRedoHistory
Fore
SplineSet
514 -11 m 0xb8
 430 -11 411 44 411 129 c 2
 411 436 l 1
 257 436 l 1
 257 302 216 79 171 0 c 1
 83 0 l 1x78
 143 105 183 320 183 436 c 1
 137 436 85 417 52 382 c 1
 38 456 l 1
 77 485 136 501 205 501 c 2
 588 501 l 1
 588 436 l 1
 489 436 l 1
 489 118 l 2
 489 78 496 49 537 49 c 0
 549 49 562 52 576 56 c 1
 581 -4 l 1
 559 -8 537 -11 514 -11 c 0xb8
EndSplineSet
EndChar

StartChar: plus
Encoding: 43 43 296
Width: 675
VWidth: 0
GlyphClass: 2
Flags: W
HStem: 330 67<95 301 375 580>
VStem: 301 73<99 330 397 626>
LayerCount: 2
UndoRedoHistory
Layer: 0
Undoes
EndUndoes
Redoes
EndRedoes
EndUndoRedoHistory
UndoRedoHistory
Layer: 1
Undoes
EndUndoes
Redoes
EndRedoes
EndUndoRedoHistory
Fore
SplineSet
301 99 m 1
 301 330 l 1
 95 330 l 1
 95 397 l 1
 302 397 l 1
 302 626 l 1
 375 626 l 1
 375 397 l 1
 580 397 l 1
 580 330 l 1
 374 330 l 1
 374 99 l 1
 301 99 l 1
EndSplineSet
EndChar

StartChar: plusminus
Encoding: 177 177 297
Width: 695
VWidth: 0
GlyphClass: 2
Flags: W
HStem: 0 67<96 600> 332 67<96 309 383 598>
VStem: 309 73<150 332 399 582>
LayerCount: 2
UndoRedoHistory
Layer: 0
Undoes
EndUndoes
Redoes
EndRedoes
EndUndoRedoHistory
UndoRedoHistory
Layer: 1
Undoes
EndUndoes
Redoes
EndRedoes
EndUndoRedoHistory
Fore
SplineSet
310 150 m 1
 310 332 l 1
 96 332 l 1
 96 399 l 1
 309 399 l 1
 309 582 l 1
 382 582 l 1
 382 399 l 1
 598 399 l 1
 598 332 l 1
 383 332 l 1
 383 150 l 1
 310 150 l 1
96 0 m 1
 96 67 l 1
 600 67 l 1
 600 0 l 1
 96 0 l 1
EndSplineSet
EndChar

StartChar: product
Encoding: 8719 8719 298
Width: 756
VWidth: 0
GlyphClass: 2
Flags: W
HStem: 0 21G<147 232 533 620> 640 71<49 147 232 533 620 708>
VStem: 147 85<0 640> 533 87<0 640>
LayerCount: 2
UndoRedoHistory
Layer: 0
Undoes
EndUndoes
Redoes
EndRedoes
EndUndoRedoHistory
UndoRedoHistory
Layer: 1
Undoes
EndUndoes
Redoes
EndRedoes
EndUndoRedoHistory
Fore
SplineSet
147 0 m 1
 147 640 l 1
 49 640 l 1
 49 711 l 1
 708 711 l 1
 708 640 l 1
 620 640 l 1
 620 0 l 1
 533 0 l 1
 533 640 l 1
 232 640 l 1
 232 0 l 1
 147 0 l 1
EndSplineSet
EndChar

StartChar: q
Encoding: 113 113 299
Width: 580
VWidth: 0
GlyphClass: 2
Flags: W
HStem: -11 67<196.414 343.42> 447 67<239.404 414.446>
VStem: 55 83<121.53 333.352> 416 80<-188 75 132.807 436.247>
LayerCount: 2
UndoRedoHistory
Layer: 0
Undoes
EndUndoes
Redoes
EndRedoes
EndUndoRedoHistory
UndoRedoHistory
Layer: 1
Undoes
EndUndoes
Redoes
EndRedoes
EndUndoRedoHistory
Fore
SplineSet
491 -266 m 2
 463 -278 416 -272 416 -215 c 2
 416 75 l 1
 379 14 320 -11 254 -11 c 0
 137 -11 55 79 55 214 c 0
 55 401 163 514 325 514 c 0
 388 514 457 491 496 466 c 1
 496 -188 l 1
 633 -131 l 1
 646 -198 l 1
 491 -266 l 2
264 56 m 0
 364 56 416 133 416 232 c 2
 416 430 l 1
 396 436 360 447 324 447 c 0
 211 447 138 359 138 219 c 0
 138 121 188 56 264 56 c 0
EndSplineSet
EndChar

StartChar: question
Encoding: 63 63 300
Width: 483
VWidth: 0
GlyphClass: 2
Flags: W
HStem: 0 103<143.162 229.289> 649 75<96.7016 289.992>
VStem: 134 104<9.07031 93.2058> 153 61<180 259.508> 332 83<460.925 609.812>
LayerCount: 2
UndoRedoHistory
Layer: 0
Undoes
EndUndoes
Redoes
EndRedoes
EndUndoRedoHistory
UndoRedoHistory
Layer: 1
Undoes
EndUndoes
Redoes
EndRedoes
EndUndoRedoHistory
Fore
SplineSet
153 180 m 1xd8
 153 357 332 385 332 549 c 0
 332 620 273 648 208 649 c 0
 159 650 105 637 68 616 c 1
 68 690 l 1
 107 709 154 724 206 724 c 0
 341 724 415 653 415 553 c 0
 415 371 214 331 214 180 c 1
 153 180 l 1xd8
187 0 m 0
 153 0 134 24 134 52 c 0
 134 84 161 103 187 103 c 0
 220 103 238 79 238 51 c 0xe8
 238 19 213 0 187 0 c 0
EndSplineSet
EndChar

StartChar: quotedbl
Encoding: 34 34 302
Width: 413
VWidth: 0
GlyphClass: 2
Flags: W
HStem: 455 256<110 164 256 309>
VStem: 93 227
LayerCount: 2
UndoRedoHistory
Layer: 0
Undoes
EndUndoes
Redoes
EndRedoes
EndUndoRedoHistory
UndoRedoHistory
Layer: 1
Undoes
EndUndoes
Redoes
EndRedoes
EndUndoRedoHistory
Fore
SplineSet
110 455 m 1
 93 711 l 1
 174 711 l 1
 164 455 l 1
 110 455 l 1
256 455 m 1
 239 711 l 1
 320 711 l 1
 309 455 l 1
 256 455 l 1
EndSplineSet
EndChar

StartChar: quotedblbase
Encoding: 8222 8222 303
Width: 455
VWidth: 0
GlyphClass: 2
Flags: W
HStem: -116 214<296 310 470 485>
VStem: 70 316
LayerCount: 2
UndoRedoHistory
Layer: 0
Undoes
EndUndoes
Redoes
EndRedoes
EndUndoRedoHistory
UndoRedoHistory
Layer: 1
Undoes
EndUndoes
Redoes
EndRedoes
EndUndoRedoHistory
Fore
SplineSet
70 -116 m 1
 122 98 l 1
 210 98 l 1
 136 -116 l 1
 70 -116 l 1
246 -116 m 1
 296 98 l 1
 386 98 l 1
 311 -116 l 1
 246 -116 l 1
EndSplineSet
EndChar

StartChar: quotedblleft
Encoding: 8220 8220 304
Width: 450
VWidth: 0
GlyphClass: 2
Flags: W
HStem: 496 215<316 329 486 500>
VStem: 70 311
LayerCount: 2
UndoRedoHistory
Layer: 0
Undoes
EndUndoes
Redoes
EndRedoes
EndUndoRedoHistory
UndoRedoHistory
Layer: 1
Undoes
EndUndoes
Redoes
EndRedoes
EndUndoRedoHistory
Fore
SplineSet
70 496 m 1
 146 711 l 1
 210 711 l 1
 159 496 l 1
 70 496 l 1
241 496 m 1
 316 711 l 1
 381 711 l 1
 330 496 l 1
 241 496 l 1
EndSplineSet
EndChar

StartChar: quotedblright
Encoding: 8221 8221 305
Width: 438
VWidth: 0
GlyphClass: 2
Flags: W
HStem: 496 215<122 136 282 295>
VStem: 71 300
LayerCount: 2
UndoRedoHistory
Layer: 0
Undoes
EndUndoes
Redoes
EndRedoes
EndUndoRedoHistory
UndoRedoHistory
Layer: 1
Undoes
EndUndoes
Redoes
EndRedoes
EndUndoRedoHistory
Fore
SplineSet
71 496 m 1
 122 711 l 1
 211 711 l 1
 136 496 l 1
 71 496 l 1
230 496 m 1
 282 711 l 1
 371 711 l 1
 295 496 l 1
 230 496 l 1
EndSplineSet
EndChar

StartChar: quoteleft
Encoding: 8216 8216 306
Width: 279
VWidth: 0
GlyphClass: 2
Flags: W
HStem: 496 215<146 159>
VStem: 70 140
LayerCount: 2
UndoRedoHistory
Layer: 0
Undoes
EndUndoes
Redoes
EndRedoes
EndUndoRedoHistory
UndoRedoHistory
Layer: 1
Undoes
EndUndoes
Redoes
EndRedoes
EndUndoRedoHistory
Fore
SplineSet
210 711 m 1
 159 496 l 1
 70 496 l 1
 146 711 l 1
 210 711 l 1
EndSplineSet
EndChar

StartChar: quoteright
Encoding: 8217 8217 307
Width: 278
VWidth: 0
GlyphClass: 2
Flags: W
HStem: 496 215<122 135>
VStem: 71 139
LayerCount: 2
UndoRedoHistory
Layer: 0
Undoes
EndUndoes
Redoes
EndRedoes
EndUndoRedoHistory
UndoRedoHistory
Layer: 1
Undoes
EndUndoes
Redoes
EndRedoes
EndUndoRedoHistory
Fore
SplineSet
71 496 m 1
 122 711 l 1
 210 711 l 1
 135 496 l 1
 71 496 l 1
EndSplineSet
EndChar

StartChar: quotesinglbase
Encoding: 8218 8218 308
Width: 279
VWidth: 0
GlyphClass: 2
Flags: W
HStem: -116 214<122 135>
VStem: 70 140
LayerCount: 2
UndoRedoHistory
Layer: 0
Undoes
EndUndoes
Redoes
EndRedoes
EndUndoRedoHistory
UndoRedoHistory
Layer: 1
Undoes
EndUndoes
Redoes
EndRedoes
EndUndoRedoHistory
Fore
SplineSet
70 -116 m 1
 122 98 l 1
 210 98 l 1
 135 -116 l 1
 70 -116 l 1
EndSplineSet
EndChar

StartChar: quotesingle
Encoding: 39 39 309
Width: 267
VWidth: 0
GlyphClass: 2
Flags: W
HStem: 485 226<110 166>
VStem: 93 81<617.941 711>
LayerCount: 2
UndoRedoHistory
Layer: 0
Undoes
EndUndoes
Redoes
EndRedoes
EndUndoRedoHistory
UndoRedoHistory
Layer: 1
Undoes
EndUndoes
Redoes
EndRedoes
EndUndoRedoHistory
Fore
SplineSet
110 485 m 1
 93 711 l 1
 174 711 l 1
 166 485 l 1
 110 485 l 1
EndSplineSet
EndChar

StartChar: r
Encoding: 114 114 310
Width: 396
VWidth: 0
GlyphClass: 2
Flags: W
HStem: 0 21G<103 183> 443 69<248.608 383.211> 481 20G<61 120>
VStem: 103 80<0 366.21>
AnchorPoint: "top" 238 562 basechar 0
AnchorPoint: "bottom" 165 -1 basechar 0
LayerCount: 2
UndoRedoHistory
Layer: 0
Undoes
EndUndoes
Redoes
EndRedoes
EndUndoRedoHistory
UndoRedoHistory
Layer: 1
Undoes
EndUndoes
Redoes
EndRedoes
EndUndoRedoHistory
Fore
SplineSet
103 0 m 1xd0
 103 338 l 2
 103 395 62 450 38 471 c 1
 107 501 l 1xb0
 133 485 158 449 165 405 c 1
 190 467 252 512 314 512 c 0
 355 512 371 507 389 502 c 1
 382 431 l 1
 374 434 354 443 312 443 c 0
 242 443 183 377 183 262 c 2
 183 0 l 1
 103 0 l 1xd0
EndSplineSet
EndChar

StartChar: radical
Encoding: 8730 8730 312
Width: 604
VWidth: 0
GlyphClass: 2
Flags: W
HStem: 0 21G<261.523 338.301> 691 20G<485.736 556>
VStem: 492 64<688.781 711>
LayerCount: 2
UndoRedoHistory
Layer: 0
Undoes
EndUndoes
Redoes
EndRedoes
EndUndoRedoHistory
UndoRedoHistory
Layer: 1
Undoes
EndUndoes
Redoes
EndRedoes
EndUndoRedoHistory
Fore
SplineSet
269 0 m 1
 146 329 l 1
 62 315 l 1
 53 370 l 1
 196 395 l 1
 269 179 l 1
 299 79 l 1
 326 181 l 1
 492 711 l 1
 556 711 l 1
 332 0 l 1
 269 0 l 1
EndSplineSet
EndChar

StartChar: registered
Encoding: 174 174 315
Width: 917
VWidth: 0
GlyphClass: 2
Flags: W
HStem: -12 51<350.792 566.069> 334 58<385 448> 523 59<384 536.315> 669 54<350.792 566.069>
VStem: 92 59<238.64 466.331> 316 69<143 334 392 523> 550 73<409.609 508.58> 766 60<242.921 466.331>
LayerCount: 2
UndoRedoHistory
Layer: 0
Undoes
EndUndoes
Redoes
EndRedoes
EndUndoRedoHistory
UndoRedoHistory
Layer: 1
Undoes
EndUndoes
Redoes
EndRedoes
EndUndoRedoHistory
Fore
SplineSet
459 723 m 0
 661 723 826 557 826 355 c 0
 826 153 661 -12 459 -12 c 0
 257 -12 92 153 92 355 c 0
 92 557 257 723 459 723 c 0
458 39 m 0
 629 39 766 183 766 354 c 0
 766 526 629 669 458 669 c 0
 286 669 151 526 151 354 c 0
 151 183 286 39 458 39 c 0
384 392 m 1
 419 392 l 2
 483 392 550 391 550 457 c 0
 550 531 491 523 419 523 c 2
 384 523 l 1
 384 392 l 1
385 143 m 1
 316 143 l 1
 316 582 l 1
 420 582 l 2
 557 582 623 545 623 464 c 0
 623 392 576 357 514 345 c 1
 631 143 l 1
 553 143 l 1
 448 334 l 1
 385 334 l 1
 385 143 l 1
EndSplineSet
EndChar

StartChar: ring
Encoding: 730 730 316
Width: 300
VWidth: 0
GlyphClass: 2
Flags: W
HStem: 547 36<113.755 186.596> 687 36<113.755 186.596>
VStem: 58 43<592.031 677.969> 200 43<593.338 676.662>
AnchorPoint: "top" 154 562 mark 0
LayerCount: 2
UndoRedoHistory
Layer: 0
Undoes
EndUndoes
Redoes
EndRedoes
EndUndoRedoHistory
UndoRedoHistory
Layer: 1
Undoes
EndUndoes
Redoes
EndRedoes
EndUndoRedoHistory
Fore
SplineSet
150 723 m 0
 201 723 243 686 243 635 c 0
 243 584 201 547 150 547 c 0
 99 547 58 584 58 635 c 0
 58 686 99 723 150 723 c 0
150 583 m 0
 178 583 200 607 200 635 c 0
 200 663 178 687 150 687 c 0
 122 687 101 663 101 635 c 0
 101 607 122 583 150 583 c 0
EndSplineSet
EndChar

StartChar: s
Encoding: 115 115 317
Width: 442
VWidth: 0
GlyphClass: 2
Flags: W
HStem: -11 67<131.093 297.503> 447 67<161.066 323.754>
VStem: 61 80<336.161 428.022> 320 79<79.3411 175.61>
AnchorPoint: "top" 244 562 basechar 0
AnchorPoint: "bottom" 245 0 basechar 0
LayerCount: 2
UndoRedoHistory
Layer: 0
Undoes
EndUndoes
Redoes
EndRedoes
EndUndoRedoHistory
UndoRedoHistory
Layer: 1
Undoes
EndUndoes
Redoes
EndRedoes
EndUndoRedoHistory
Fore
SplineSet
232 -11 m 0
 151 -11 88 20 58 38 c 1
 83 102 l 1
 129 76 175 56 227 56 c 0
 275 56 320 76 320 130 c 0
 320 181 264 201 196 231 c 0
 128 261 61 294 61 379 c 0
 61 468 137 514 224 514 c 0
 293 514 347 493 382 473 c 1
 359 409 l 1
 329 426 273 447 229 447 c 0
 174 447 141 422 141 380 c 0
 141 333 190 316 262 284 c 1
 335 254 399 219 399 136 c 0
 399 41 325 -11 232 -11 c 0
EndSplineSet
EndChar

StartChar: section
Encoding: 167 167 323
Width: 522
VWidth: 0
GlyphClass: 2
Flags: W
HStem: -12 66<121.815 309.458> 657 66<207.761 392.147>
VStem: 88 87<312.763 417.674> 106 83<543.977 636.484> 340 84<82.5868 174.746> 349 87<306.992 401.916>
LayerCount: 2
UndoRedoHistory
Layer: 0
Undoes
EndUndoes
Redoes
EndRedoes
EndUndoRedoHistory
UndoRedoHistory
Layer: 1
Undoes
EndUndoes
Redoes
EndRedoes
EndUndoRedoHistory
Fore
SplineSet
231 -12 m 0xc8
 183 -12 139 -2 102 13 c 1
 101 84 l 1
 142 66 180 54 229 54 c 0
 291 54 340 84 340 127 c 0
 340 181 293 188 242 210 c 2
 203 228 l 2
 145 253 88 292 88 358 c 0xe8
 88 420 138 455 181 476 c 1
 139 501 106 530 106 591 c 0
 106 686 194 723 288 723 c 0
 331 723 360 714 397 703 c 1
 398 633 l 1
 369 646 330 657 290 657 c 0
 239 657 189 644 189 593 c 0
 189 554 215 537 242 522 c 0
 316 481 436 454 436 362 c 0xd4
 436 300 386 264 345 240 c 1
 387 219 424 191 424 131 c 0
 424 27 335 -12 231 -12 c 0xc8
282 272 m 1
 312 291 349 316 349 355 c 0xe4
 349 414 275 433 237 449 c 1
 209 434 175 407 175 364 c 0
 175 303 230 293 282 272 c 1
EndSplineSet
EndChar

StartChar: semicolon
Encoding: 59 59 324
Width: 301
VWidth: 0
GlyphClass: 2
Flags: W
HStem: 406 120<113.399 214.054>
VStem: 99 129<419.766 512.234>
LayerCount: 2
UndoRedoHistory
Layer: 0
Undoes
EndUndoes
Redoes
EndRedoes
EndUndoRedoHistory
UndoRedoHistory
Layer: 1
Undoes
EndUndoes
Redoes
EndRedoes
EndUndoRedoHistory
Fore
SplineSet
164 526 m 0
 207 526 228 496 228 466 c 0
 228 436 207 406 164 406 c 0
 121 406 99 436 99 466 c 0
 99 496 121 526 164 526 c 0
71 -125 m 1
 123 101 l 1
 215 101 l 1
 135 -125 l 1
 71 -125 l 1
EndSplineSet
EndChar

StartChar: seven
Encoding: 55 55 325
Width: 642
VWidth: 0
GlyphClass: 2
Flags: W
HStem: 0 21G<199 297.856> 640 71<102 455>
LayerCount: 2
UndoRedoHistory
Layer: 0
Undoes
EndUndoes
Redoes
EndRedoes
EndUndoRedoHistory
UndoRedoHistory
Layer: 1
Undoes
EndUndoes
Redoes
EndRedoes
EndUndoRedoHistory
Fore
SplineSet
199 0 m 1
 455 640 l 1
 102 640 l 1
 102 711 l 1
 552 711 l 1
 552 667 l 1
 290 0 l 1
 199 0 l 1
EndSplineSet
EndChar

StartChar: six
Encoding: 54 54 326
Width: 642
VWidth: 0
GlyphClass: 2
Flags: W
HStem: -12 74<248.538 409.208> 392 70<247.814 407.516> 664 65<381.223 442.831>
VStem: 84 83<148.865 373.37> 473 81<129.484 320.594>
LayerCount: 2
UndoRedoHistory
Layer: 0
Undoes
EndUndoes
Redoes
EndRedoes
EndUndoRedoHistory
UndoRedoHistory
Layer: 1
Undoes
EndUndoes
Redoes
EndRedoes
EndUndoRedoHistory
Fore
SplineSet
333 -12 m 0
 151 -12 84 133 84 286 c 0
 84 469 172 687 441 729 c 1
 458 664 l 1
 293 641 196 523 171 375 c 1
 203 435 287 462 339 462 c 0
 464 462 554 359 554 227 c 0
 554 86 455 -12 333 -12 c 0
333 62 m 0
 419 62 473 124 473 224 c 0
 473 318 429 392 329 392 c 0
 239 392 167 322 167 229 c 0
 167 143 228 62 333 62 c 0
EndSplineSet
EndChar

StartChar: slash
Encoding: 47 47 327
Width: 464
VWidth: 0
GlyphClass: 2
Flags: W
HStem: 0 21G<39 127.636> 691 20G<335.421 426>
LayerCount: 2
UndoRedoHistory
Layer: 0
Undoes
EndUndoes
Redoes
EndRedoes
EndUndoRedoHistory
UndoRedoHistory
Layer: 1
Undoes
EndUndoes
Redoes
EndRedoes
EndUndoRedoHistory
Fore
SplineSet
39 0 m 1
 344 711 l 1
 426 711 l 1
 119 0 l 1
 39 0 l 1
EndSplineSet
EndChar

StartChar: sterling
Encoding: 163 163 329
Width: 621
VWidth: 0
GlyphClass: 2
Flags: W
HStem: 0 69<186 541> 322 65<79 168 253 407> 650 74<303.775 482.317>
VStem: 168 85<133.183 322 387 596.623>
LayerCount: 2
UndoRedoHistory
Layer: 0
Undoes
EndUndoes
Redoes
EndRedoes
EndUndoRedoHistory
UndoRedoHistory
Layer: 1
Undoes
EndUndoes
Redoes
EndRedoes
EndUndoRedoHistory
Fore
SplineSet
92 0 m 1
 92 67 l 1
 143 97 168 162 168 244 c 2
 168 322 l 1
 79 322 l 1
 79 387 l 1
 168 387 l 1
 168 452 l 2
 168 623 228 724 373 724 c 0
 441 724 493 710 531 680 c 1
 506 616 l 1
 472 637 429 650 377 650 c 0
 279 650 252 581 252 479 c 2
 252 387 l 1
 407 387 l 1
 407 322 l 1
 253 322 l 1
 253 269 l 2
 253 172 232 106 186 69 c 1
 541 69 l 1
 541 0 l 1
 92 0 l 1
EndSplineSet
EndChar

StartChar: summation
Encoding: 8721 8721 330
Width: 573
VWidth: 0
GlyphClass: 2
Flags: W
HStem: 0 72<174 515> 642 69<188 493>
LayerCount: 2
UndoRedoHistory
Layer: 0
Undoes
EndUndoes
Redoes
EndRedoes
EndUndoRedoHistory
UndoRedoHistory
Layer: 1
Undoes
EndUndoes
Redoes
EndRedoes
EndUndoRedoHistory
Fore
SplineSet
76 0 m 1
 76 60 l 1
 275 361 l 1
 87 653 l 1
 87 711 l 1
 493 711 l 1
 493 642 l 1
 188 642 l 1
 371 362 l 1
 174 72 l 1
 515 72 l 1
 515 0 l 1
 76 0 l 1
EndSplineSet
EndChar

StartChar: t
Encoding: 116 116 331
Width: 417
VWidth: 0
GlyphClass: 2
Flags: W
HStem: -4 62<230.069 392.467> 449 52<28 127 206 369>
VStem: 127 79<81.8665 449 501 646>
AnchorPoint: "top" 244 562 basechar 0
AnchorPoint: "bottom" 245 0 basechar 0
LayerCount: 2
UndoRedoHistory
Layer: 0
Undoes
EndUndoes
Redoes
EndRedoes
EndUndoRedoHistory
UndoRedoHistory
Layer: 1
Undoes
EndUndoes
Redoes
EndRedoes
EndUndoRedoHistory
Fore
SplineSet
287 -4 m 0
 177 -4 127 41 127 146 c 2
 127 449 l 1
 28 449 l 1
 28 501 l 1
 130 501 l 1
 130 646 l 1
 206 661 l 1
 206 501 l 1
 369 501 l 1
 369 449 l 1
 206 449 l 1
 208 146 l 2
 208 85 234 58 296 58 c 0
 318 58 367 68 390 77 c 1
 399 17 l 1
 368 6 315 -4 287 -4 c 0
EndSplineSet
EndChar

StartChar: thorn
Encoding: 254 254 334
Width: 597
VWidth: 0
GlyphClass: 2
Flags: W
HStem: -248 21G<82 163> -11 64<234.489 386.841> 447 67<236.895 391.475> 691 20G<82 164>
VStem: 82 81<-248 66 131.857 361.221 431 711> 462 86<139.605 368.389>
LayerCount: 2
UndoRedoHistory
Layer: 0
Undoes
EndUndoes
Redoes
EndRedoes
EndUndoRedoHistory
UndoRedoHistory
Layer: 1
Undoes
EndUndoes
Redoes
EndRedoes
EndUndoRedoHistory
Fore
SplineSet
82 -248 m 1
 82 711 l 1
 164 711 l 1
 164 431 l 1
 199 480 248 514 324 514 c 0
 477 514 548 394 548 257 c 0
 548 96 465 -11 324 -11 c 0
 257 -11 204 15 163 66 c 1
 163 -248 l 1
 82 -248 l 1
313 53 m 0
 419 53 462 144 462 254 c 0
 462 363 421 447 316 447 c 0
 204 447 163 357 163 241 c 0
 163 128 216 53 313 53 c 0
EndSplineSet
EndChar

StartChar: three
Encoding: 51 51 335
Width: 642
VWidth: 0
GlyphClass: 2
Flags: W
HStem: -12 73<194.239 393.95> 340 72<230 378.9> 649 74<198.134 379.173>
VStem: 432 80<460.53 599.343> 456 83<120.822 274.127>
LayerCount: 2
UndoRedoHistory
Layer: 0
Undoes
EndUndoes
Redoes
EndRedoes
EndUndoRedoHistory
UndoRedoHistory
Layer: 1
Undoes
EndUndoes
Redoes
EndRedoes
EndUndoRedoHistory
Fore
SplineSet
305 -12 m 0xe8
 235 -12 162 8 106 42 c 1
 132 110 l 1
 193 78 254 61 307 61 c 0
 393 61 456 105 456 198 c 0xe8
 456 293 385 340 268 340 c 2
 230 340 l 1
 230 412 l 1
 261 412 l 2
 371 412 432 443 432 535 c 2
 432 542 l 1
 430 611 368 649 295 649 c 0
 240 649 177 628 129 579 c 1
 82 632 l 1
 132 692 214 723 293 723 c 0
 403 723 509 664 512 542 c 1
 512 534 l 2xf0
 512 454 476 398 397 375 c 1
 490 356 539 289 539 197 c 0
 539 48 427 -12 305 -12 c 0xe8
EndSplineSet
EndChar

StartChar: threequarters
Encoding: 190 190 336
Width: 1005
VWidth: 0
GlyphClass: 2
Flags: W
HStem: 0 21G<265 350.421 808 872> 129 48<672 808 872 964> 201 57<90.5163 231.451> 446 56<128 225.81> 666 58<92.2847 228.281> 691 20G<660.551 745>
VStem: 253 63<528.741 640.964> 264 63<292.4 416.317> 808 64<0 129 177 301>
LayerCount: 2
UndoRedoHistory
Layer: 0
Undoes
EndUndoes
Redoes
EndRedoes
EndUndoRedoHistory
UndoRedoHistory
Layer: 1
Undoes
EndUndoes
Redoes
EndRedoes
EndUndoRedoHistory
Fore
SplineSet
265 0 m 1xf480
 672 711 l 1
 745 711 l 1
 339 0 l 1
 265 0 l 1xf480
872 301 m 1
 872 177 l 1
 964 177 l 1
 964 129 l 1
 872 129 l 1
 872 0 l 1
 808 0 l 1
 808 129 l 1
 593 129 l 1
 593 173 l 1
 770 501 l 1
 836 501 l 1
 672 177 l 1
 808 177 l 1
 808 301 l 1
 872 301 l 1
169 201 m 0
 104 201 58 234 54 236 c 1
 72 291 l 1
 85 283 121 258 166 258 c 0
 220 258 264 293 264 351 c 0xf980
 264 419 225 446 155 446 c 1
 128 446 l 1
 128 502 l 1
 152 502 l 2
 220 502 256 535 253 593 c 1
 251 637 213 666 170 666 c 0
 122 666 86 645 66 624 c 1
 40 669 l 1
 68 703 118 724 176 724 c 0
 242 724 313 683 316 598 c 0xfa80
 318 538 291 491 241 475 c 1
 296 462 327 414 327 349 c 0xf980
 328 253 249 201 169 201 c 0
EndSplineSet
Ligature2: "fracDiagonalFractionslookup0 subtable" three fraction four
Ligature2: "fracDiagonalFractionslookup0 subtable" three slash four
EndChar

StartChar: tilde
Encoding: 732 732 337
Width: 328
VWidth: 0
GlyphClass: 2
Flags: W
HStem: 617 61<187.666 253.862> 662 60<82.8975 155.178>
VStem: 26 52<617 659.786> 259 53<680.203 725>
AnchorPoint: "top" 166 562 mark 0
LayerCount: 2
UndoRedoHistory
Layer: 0
Undoes
EndUndoes
Redoes
EndRedoes
EndUndoRedoHistory
UndoRedoHistory
Layer: 1
Undoes
EndUndoes
Redoes
EndRedoes
EndUndoRedoHistory
Fore
SplineSet
216 617 m 0xb0
 167 617 144 662 107 662 c 0x70
 85 662 81 643 78 617 c 1
 26 617 l 1xb0
 31 674 63 722 124 722 c 0x70
 176 722 204 678 229 678 c 0
 251 678 256 701 259 725 c 1
 312 725 l 1
 306 670 277 617 216 617 c 0xb0
EndSplineSet
EndChar

StartChar: trademark
Encoding: 8482 8482 338
Width: 897
VWidth: 0
GlyphClass: 2
Flags: W
HStem: 661 49<39 163 223 345>
VStem: 163 60<337 661> 397 57<337 622> 747 57<337 622>
LayerCount: 2
UndoRedoHistory
Layer: 0
Undoes
EndUndoes
Redoes
EndRedoes
EndUndoRedoHistory
UndoRedoHistory
Layer: 1
Undoes
EndUndoes
Redoes
EndRedoes
EndUndoRedoHistory
Fore
SplineSet
397 337 m 1
 397 710 l 1
 469 710 l 1
 600 413 l 1
 736 710 l 1
 804 710 l 1
 804 337 l 1
 747 337 l 1
 747 622 l 1
 625 351 l 1
 575 351 l 1
 454 622 l 1
 454 337 l 1
 397 337 l 1
163 337 m 1
 163 661 l 1
 39 661 l 1
 39 710 l 1
 345 710 l 1
 345 661 l 1
 223 661 l 1
 223 337 l 1
 163 337 l 1
EndSplineSet
EndChar

StartChar: two
Encoding: 50 50 339
Width: 642
VWidth: 0
GlyphClass: 2
Flags: W
HStem: 0 67<245 521> 649 74<231.649 381.48>
VStem: 430 83<423.726 598.295>
LayerCount: 2
UndoRedoHistory
Layer: 0
Undoes
EndUndoes
Redoes
EndRedoes
EndUndoRedoHistory
UndoRedoHistory
Layer: 1
Undoes
EndUndoes
Redoes
EndRedoes
EndUndoRedoHistory
Fore
SplineSet
305 723 m 0
 433 723 510 645 513 519 c 0
 516 415 462 339 379 236 c 1
 245 67 l 1
 521 67 l 1
 521 0 l 1
 140 0 l 1
 140 62 l 1
 325 295 l 1
 397 384 434 454 430 523 c 1
 427 598 385 649 306 649 c 0
 210 649 159 554 159 554 c 2
 111 617 l 1
 111 617 179 723 305 723 c 0
EndSplineSet
EndChar

StartChar: u
Encoding: 117 117 340
Width: 595
VWidth: 0
GlyphClass: 2
Flags: W
HStem: -11 67<195.019 338.337 507.781 548> 481 20G<77 158.37 412 492>
VStem: 78 81<94.4303 501> 412 80<138.16 501>
AnchorPoint: "top" 293 562 basechar 0
AnchorPoint: "bottom" 287 0 basechar 0
AnchorPoint: "ogonek" 462 0 basechar 0
LayerCount: 2
UndoRedoHistory
Layer: 0
Undoes
EndUndoes
Redoes
EndRedoes
EndUndoRedoHistory
UndoRedoHistory
Layer: 1
Undoes
EndUndoes
Redoes
EndRedoes
EndUndoRedoHistory
Fore
SplineSet
255 -11 m 0
 164 -11 74 39 78 178 c 2
 81 284 l 2
 84 389 77 501 77 501 c 1
 158 501 l 1
 158 501 166 429 162 285 c 2
 159 178 l 2
 157 81 208 56 265 56 c 0
 346 56 412 126 412 235 c 2
 412 501 l 1
 492 501 l 1
 492 160 l 2
 492 89 500 59 562 59 c 1
 548 -7 l 1
 481 -7 436 16 421 79 c 1
 384 18 329 -11 255 -11 c 0
EndSplineSet
EndChar

StartChar: underscore
Encoding: 95 95 348
Width: 675
VWidth: 0
GlyphClass: 2
Flags: W
HStem: -74 62<98 578>
LayerCount: 2
UndoRedoHistory
Layer: 0
Undoes
EndUndoes
Redoes
EndRedoes
EndUndoRedoHistory
UndoRedoHistory
Layer: 1
Undoes
EndUndoes
Redoes
EndRedoes
EndUndoRedoHistory
Fore
SplineSet
98 -74 m 1
 98 -12 l 1
 578 -12 l 1
 578 -74 l 1
 98 -74 l 1
EndSplineSet
EndChar

StartChar: uni00B2
Encoding: 178 178 351
Width: 452
VWidth: 0
GlyphClass: 2
Flags: W
HStem: 295 58<181 358> 646 57<168.497 284.312>
VStem: 296 63<536.021 634.034>
LayerCount: 2
UndoRedoHistory
Layer: 0
Undoes
EndUndoes
Redoes
EndRedoes
EndUndoRedoHistory
UndoRedoHistory
Layer: 1
Undoes
EndUndoes
Redoes
EndRedoes
EndUndoRedoHistory
Fore
SplineSet
92 295 m 1
 92 349 l 1
 144 396 196 443 239 491 c 0
 257 511 271 529 281 546 c 0
 291 563 296 577 296 591 c 0
 296 628 267 646 228 646 c 0
 182 646 153 616 137 582 c 1
 96 620 l 1
 117 669 163 703 230 703 c 0
 288 703 330 678 349 638 c 0
 355 624 359 609 359 592 c 0
 359 541 333 505 307 473 c 0
 271 430 226 392 181 353 c 1
 358 353 l 1
 358 295 l 1
 92 295 l 1
EndSplineSet
EndChar

StartChar: uni00B3
Encoding: 179 179 352
Width: 420
VWidth: 0
GlyphClass: 2
Flags: W
HStem: 286 56<126.387 259.793> 474 58<147 252.893> 646 58<128.783 257.918>
VStem: 268 65<548.302 634.869> 280 63<362.453 455.557>
LayerCount: 2
UndoRedoHistory
Layer: 0
Undoes
EndUndoes
Redoes
EndRedoes
EndUndoRedoHistory
UndoRedoHistory
Layer: 1
Undoes
EndUndoes
Redoes
EndRedoes
EndUndoRedoHistory
Fore
SplineSet
197 286 m 0xe8
 145 286 105 305 77 333 c 1
 106 380 l 1
 133 355 162 342 194 342 c 0
 240 342 280 364 280 409 c 0xe8
 280 463 230 474 175 474 c 0
 172 474 164 474 160 474 c 2
 147 474 l 1
 147 532 l 1
 171 532 l 2
 220 532 268 542 268 591 c 0
 268 631 239 646 199 646 c 0
 159 646 129 627 105 607 c 1
 77 654 l 1
 104 680 149 704 200 704 c 0
 258 704 300 678 321 640 c 0
 328 626 333 610 333 592 c 0xf0
 333 549 310 520 280 504 c 1
 316 488 343 457 343 407 c 0
 343 345 301 309 253 294 c 0
 235 289 217 286 197 286 c 0xe8
EndSplineSet
EndChar

StartChar: uni00B9
Encoding: 185 185 353
Width: 352
VWidth: 0
GlyphClass: 2
Flags: W
HStem: 295 58<95 155 214 273>
VStem: 155 59<353 621>
LayerCount: 2
UndoRedoHistory
Layer: 0
Undoes
EndUndoes
Redoes
EndRedoes
EndUndoRedoHistory
UndoRedoHistory
Layer: 1
Undoes
EndUndoes
Redoes
EndRedoes
EndUndoRedoHistory
Fore
SplineSet
95 295 m 1
 95 353 l 1
 155 353 l 1
 155 492 l 2
 155 521 154 545 154 570 c 2
 154 621 l 1
 133 610 104 596 80 587 c 1
 81 651 l 1
 114 661 138 674 163 689 c 1
 214 697 l 1
 214 352 l 1
 273 352 l 1
 273 295 l 1
 95 295 l 1
EndSplineSet
EndChar

StartChar: uni0311
Encoding: 785 785 380
Width: 312
VWidth: 0
GlyphClass: 2
Flags: W
HStem: 658 52<85.3542 226.527>
VStem: 21 42<595 634.577> 254 42<595 630.545>
AnchorPoint: "top" 155 562 mark 0
LayerCount: 2
UndoRedoHistory
Layer: 0
Undoes
EndUndoes
Redoes
EndRedoes
EndUndoRedoHistory
UndoRedoHistory
Layer: 1
Undoes
EndUndoes
Redoes
EndRedoes
EndUndoRedoHistory
Fore
SplineSet
21 595 m 1
 27 673 76 710 159 710 c 0
 240 710 290 670 296 595 c 1
 254 595 l 1
 244 636 206 658 156 658 c 0
 106 658 70 638 63 595 c 1
 21 595 l 1
EndSplineSet
EndChar

StartChar: uni0326
Encoding: 806 806 381
Width: 4
VWidth: 0
GlyphClass: 2
Flags: W
HStem: -226 226<-37 -25>
VStem: -89 143
LayerCount: 2
UndoRedoHistory
Layer: 0
Undoes
EndUndoes
Redoes
EndRedoes
EndUndoRedoHistory
UndoRedoHistory
Layer: 1
Undoes
EndUndoes
Redoes
EndRedoes
EndUndoRedoHistory
Fore
SplineSet
-89 -226 m 1
 -37 0 l 1
 54 0 l 1
 -25 -226 l 1
 -89 -226 l 1
EndSplineSet
EndChar

StartChar: uni03A9
Encoding: 937 937 382
Width: 767
VWidth: 0
GlyphClass: 2
Flags: W
HStem: 0 67<56 214 552 705> 649 74<283.839 492.931>
VStem: 61 87<259.668 504.457> 622 86<259.513 506.721>
LayerCount: 2
UndoRedoHistory
Layer: 0
Undoes
EndUndoes
Redoes
EndRedoes
EndUndoRedoHistory
UndoRedoHistory
Layer: 1
Undoes
EndUndoes
Redoes
EndRedoes
EndUndoRedoHistory
Fore
SplineSet
56 0 m 1
 50 67 l 1
 214 67 l 1
 128 133 61 256 61 394 c 0
 61 603 187 723 390 723 c 0
 592 723 708 596 708 392 c 0
 708 243 633 133 552 67 c 1
 709 67 l 1
 705 0 l 1
 458 0 l 1
 456 59 l 1
 549 123 622 248 622 383 c 0
 622 550 534 649 388 649 c 0
 229 649 148 534 148 386 c 0
 148 233 222 120 312 59 c 1
 313 0 l 1
 56 0 l 1
EndSplineSet
EndChar

StartChar: uni03BC
Encoding: 956 956 383
Width: 604
VWidth: 0
GlyphClass: 2
Flags: W
HStem: -11 67<202.807 347.337 517.374 558> 481 20G<62 144.762 421 501>
VStem: 91 76<-99 13 92.2785 472.106> 421 80<138.16 501>
LayerCount: 2
UndoRedoHistory
Layer: 0
Undoes
EndUndoes
Redoes
EndRedoes
EndUndoRedoHistory
UndoRedoHistory
Layer: 1
Undoes
EndUndoes
Redoes
EndRedoes
EndUndoRedoHistory
Fore
SplineSet
264 -11 m 0
 230 -11 196 -4 167 13 c 1
 167 -99 l 1
 91 -99 l 1
 90 284 l 1
 94 440 62 488 62 488 c 1
 142 501 l 1
 142 501 175 460 171 291 c 2
 168 178 l 2
 166 81 217 56 274 56 c 0
 355 56 421 126 421 235 c 2
 421 501 l 1
 501 501 l 1
 501 160 l 2
 501 89 510 59 572 59 c 1
 558 -7 l 1
 491 -7 445 16 430 79 c 1
 393 18 338 -11 264 -11 c 0
EndSplineSet
EndChar

StartChar: uni2074
Encoding: 8308 8308 398
Width: 442
VWidth: 0
GlyphClass: 2
Flags: W
HStem: 392 52<62 179 238 292>
VStem: 179 59<300 392 444 607>
LayerCount: 2
UndoRedoHistory
Layer: 0
Undoes
EndUndoes
Redoes
EndRedoes
EndUndoRedoHistory
UndoRedoHistory
Layer: 1
Undoes
EndUndoes
Redoes
EndRedoes
EndUndoRedoHistory
Fore
SplineSet
179 300 m 1
 179 392 l 1
 -6 392 l 1
 -6 437 l 1
 173 689 l 1
 238 689 l 1
 238 444 l 1
 292 444 l 1
 296 392 l 1
 237 392 l 1
 237 300 l 1
 179 300 l 1
62 444 m 1
 179 444 l 1
 179 607 l 1
 62 444 l 1
EndSplineSet
EndChar

StartChar: uniF6C3
Encoding: 63171 63171 399
Width: 297
VWidth: 0
GlyphClass: 2
Flags: W
HStem: -226 226<111 123>
VStem: 59 143
LayerCount: 2
UndoRedoHistory
Layer: 0
Undoes
EndUndoes
Redoes
EndRedoes
EndUndoRedoHistory
UndoRedoHistory
Layer: 1
Undoes
EndUndoes
Redoes
EndRedoes
EndUndoRedoHistory
Fore
SplineSet
59 -226 m 1
 111 0 l 1
 202 0 l 1
 123 -226 l 1
 59 -226 l 1
EndSplineSet
EndChar

StartChar: v
Encoding: 118 118 403
Width: 512
VWidth: 0
GlyphClass: 2
Flags: W
HStem: 0 21G<207.776 306.144> 481 20G<10 106.953 408.463 502>
LayerCount: 2
UndoRedoHistory
Layer: 0
Undoes
EndUndoes
Redoes
EndRedoes
EndUndoRedoHistory
UndoRedoHistory
Layer: 1
Undoes
EndUndoes
Redoes
EndRedoes
EndUndoRedoHistory
Fore
SplineSet
216 0 m 1
 10 501 l 1
 99 501 l 1
 233 164 l 2
 242 142 253 106 261 80 c 1
 276 129 283 151 289 164 c 1
 416 501 l 1
 502 501 l 1
 298 0 l 1
 216 0 l 1
EndSplineSet
EndChar

StartChar: w
Encoding: 119 119 404
Width: 813
VWidth: 0
GlyphClass: 2
Flags: W
HStem: 0 21G<183.894 277.897 536.498 628.186> 481 20G<13 105.74 368.169 459.482 711.518 801>
AnchorPoint: "top" 412 500 basechar 0
AnchorPoint: "bottom" 410 0 basechar 0
LayerCount: 2
UndoRedoHistory
Layer: 0
Undoes
EndUndoes
Redoes
EndRedoes
EndUndoRedoHistory
UndoRedoHistory
Layer: 1
Undoes
EndUndoes
Redoes
EndRedoes
EndUndoRedoHistory
Fore
SplineSet
191 0 m 1
 13 501 l 1
 99 501 l 1
 221 139 l 2
 226 125 230 106 235 91 c 1
 240 105 244 122 250 135 c 1
 375 501 l 1
 453 501 l 1
 570 140 l 2
 575 126 579 107 584 92 c 1
 590 107 595 124 601 140 c 1
 718 501 l 1
 801 501 l 1
 621 0 l 1
 543 0 l 1
 411 406 l 1
 271 0 l 1
 191 0 l 1
EndSplineSet
EndChar

StartChar: x
Encoding: 120 120 409
Width: 520
VWidth: 0
GlyphClass: 2
Flags: W
HStem: 0 21G<24 131.271 384.03 496> 481 20G<33 145.846 388.154 490>
LayerCount: 2
UndoRedoHistory
Layer: 0
Undoes
EndUndoes
Redoes
EndRedoes
EndUndoRedoHistory
UndoRedoHistory
Layer: 1
Undoes
EndUndoes
Redoes
EndRedoes
EndUndoRedoHistory
Fore
SplineSet
24 0 m 1
 215 251 l 1
 33 501 l 1
 132 501 l 1
 267 306 l 1
 402 501 l 1
 490 501 l 1
 309 253 l 1
 496 0 l 1
 398 0 l 1
 259 199 l 1
 117 0 l 1
 24 0 l 1
EndSplineSet
EndChar

StartChar: y
Encoding: 121 121 410
Width: 574
VWidth: 0
GlyphClass: 2
Flags: W
HStem: -241 67<147.674 342.301> -11 67<199.617 351.092> 481 20G<77 158.381 418 499>
VStem: 78 81<99.1494 501> 418 81<-99.8585 57 123.83 501>
AnchorPoint: "top" 262 500 basechar 0
LayerCount: 2
UndoRedoHistory
Layer: 0
Undoes
EndUndoes
Redoes
EndRedoes
EndUndoRedoHistory
UndoRedoHistory
Layer: 1
Undoes
EndUndoes
Redoes
EndRedoes
EndUndoRedoHistory
Fore
SplineSet
262 -241 m 0
 215 -241 151 -229 102 -211 c 1
 111 -137 l 1
 156 -159 213 -174 255 -174 c 0
 353 -174 418 -113 418 -21 c 2
 418 57 l 1
 382 17 333 -11 264 -11 c 0
 173 -11 74 39 78 178 c 2
 81 284 l 2
 85 440 77 501 77 501 c 1
 158 501 l 1
 158 501 166 460 162 291 c 2
 159 178 l 2
 157 81 218 56 275 56 c 0
 352 56 418 112 418 208 c 2
 418 501 l 1
 499 501 l 1
 499 -11 l 2
 499 -149 402 -241 262 -241 c 0
EndSplineSet
EndChar

StartChar: yen
Encoding: 165 165 414
Width: 747
VWidth: 0
GlyphClass: 2
Flags: W
HStem: 0 21<331 415> 138 59<154 339 408 594> 280 60<151 339 408 592> 691 20<76 181.404 566.483 671>
VStem: 331 84<0 284> 339 69<197 280>
LayerCount: 2
UndoRedoHistory
Layer: 0
Undoes
EndUndoes
Redoes
EndRedoes
EndUndoRedoHistory
UndoRedoHistory
Layer: 1
Undoes
EndUndoes
Redoes
EndRedoes
EndUndoRedoHistory
Fore
SplineSet
154 138 m 1xf4
 154 197 l 1
 339 197 l 1
 339 280 l 1
 151 280 l 1
 151 340 l 1
 592 340 l 1
 592 280 l 1
 408 280 l 1
 408 197 l 1
 594 197 l 1
 594 138 l 1
 154 138 l 1xf4
EndSplineSet
Refer: 113 89 N 1 0 0 1 72 0 2
EndChar

StartChar: z
Encoding: 122 122 416
Width: 477
VWidth: 0
GlyphClass: 2
Flags: W
HStem: 0 65<154 447> 435 66<57 330>
AnchorPoint: "top" 247 500 basechar 0
AnchorPoint: "bottom" 271 0 basechar 0
LayerCount: 2
UndoRedoHistory
Layer: 0
Undoes
EndUndoes
Redoes
EndRedoes
EndUndoRedoHistory
UndoRedoHistory
Layer: 1
Undoes
EndUndoes
Redoes
EndRedoes
EndUndoRedoHistory
Fore
SplineSet
44 0 m 1
 44 43 l 1
 330 435 l 1
 57 435 l 1
 57 501 l 1
 439 501 l 1
 439 458 l 1
 154 65 l 1
 447 65 l 1
 447 0 l 1
 44 0 l 1
EndSplineSet
EndChar

StartChar: zero
Encoding: 48 48 420
Width: 642
VWidth: 0
GlyphClass: 2
Flags: W
HStem: -12 74<249.524 388.897> 649 74<252.701 394.188>
VStem: 79 90<176.931 527.149> 474 89<185.955 536.639>
LayerCount: 2
UndoRedoHistory
Layer: 0
Undoes
EndUndoes
Redoes
EndRedoes
EndUndoRedoHistory
UndoRedoHistory
Layer: 1
Undoes
EndUndoes
Redoes
EndRedoes
EndUndoRedoHistory
Fore
SplineSet
322 62 m 0
 445 62 474 222 474 354 c 0
 474 494 455 649 322 649 c 0
 197 649 169 488 169 354 c 0
 169 214 189 62 322 62 c 0
319 -12 m 0
 136 -12 79 163 79 354 c 0
 79 546 140 723 322 723 c 0
 513 723 563 553 563 354 c 0
 563 166 498 -12 319 -12 c 0
EndSplineSet
EndChar
